<?xml version="1.0" encoding="utf-8"?>
<!-- Generator: Adobe Illustrator 24.1.1, SVG Export Plug-In . SVG Version: 6.00 Build 0)  -->
<svg version="1.1" id="Layer_1" xmlns="http://www.w3.org/2000/svg" xmlns:xlink="http://www.w3.org/1999/xlink" x="0px" y="0px"
	 viewBox="0 0 5000 2916" style="enable-background:new 0 0 5000 2916;" xml:space="preserve">
<style type="text/css">
	.st0{fill-rule:evenodd;clip-rule:evenodd;fill:none;}
	.st1{clip-path:url(#SVGID_2_);fill:#FFFFFF;}
</style>
<g>
	<rect class="st0" width="5000" height="2916"/>
	<g>
		<defs>
			<path id="SVGID_1_" d="M427.95,1647.44c-25.7-2.6-51.16-6.48-76.41-11.54c-19.71,12.06-38.88,22.87-57.56,32.29
				c36.62-1.08,74.14-6.12,112.82-15.32C413.81,1651.2,420.86,1649.39,427.95,1647.44 M496.56,1624.79
				c-28.57-8.34-57.02-17.79-85.37-28.04c-19.8,13.79-39.04,26.48-57.79,38.01c25.93,5.14,52.08,9.05,78.49,11.58
				C453.09,1640.39,474.63,1633.23,496.56,1624.79z M577.82,1645.22c-26.42-5.51-52.76-12.18-79.01-19.78
				c-21.38,8.28-42.39,15.38-63.07,21.31C482.28,1650.96,529.61,1650.76,577.82,1645.22z M2913.66,548.46l0.06,0l-0.29-0.01
				L2913.66,548.46z M2877.74,549.32c3.88-0.11,7.77-0.21,11.66-0.31c-4.91-0.16-9.79-0.3-14.68-0.45
				c-3.54,0.03-7.06,0.08-10.6,0.11C2868.65,548.88,2873.2,549.1,2877.74,549.32z M562.13,1596.36
				c-30.69-13.48-61.38-27.78-92.05-42.5c-2.78,2.1-5.56,4.2-8.32,6.27c-16.76,12.57-33.12,24.45-49.13,35.62
				c28.6,10.32,57.32,19.81,86.16,28.17C519.54,1615.86,540.65,1606.69,562.13,1596.36z M650.89,1632.79
				c-28.98-10.94-58.01-22.95-87.04-35.68c-21.3,10.28-42.23,19.42-62.81,27.47c27.06,7.79,54.2,14.59,81.44,20.13
				C605.08,1641.95,627.88,1638.03,650.89,1632.79z M733.9,1660.98c-26.73-7.99-53.53-17.14-80.35-27.21
				c-22.28,5.16-44.37,9.09-66.27,11.91C635.9,1655.3,684.79,1660.87,733.9,1660.98z M2990.97,549.32l0.45-0.01l-1.42-0.03
				L2990.97,549.32z M2953.76,550.15c3.89-0.12,7.84-0.19,11.75-0.3c-4.92-0.16-9.85-0.32-14.75-0.47
				c-3.95,0.04-7.9,0.08-11.84,0.12C2943.86,549.72,2948.79,549.91,2953.76,550.15z M2918.63,551.44
				c5.79-0.23,11.61-0.43,17.42-0.64c-7.48-0.32-14.95-0.64-22.39-0.93c-5.62,0.11-11.2,0.25-16.79,0.38
				C2904.1,550.63,2911.36,551.03,2918.63,551.44z M891.94,1691.27c-26.6-9.96-53.39-21.16-80.32-33.3
				c-22.62,2.75-45.19,4.17-67.72,4.45C793.52,1676.71,842.92,1686.87,891.94,1691.27z M625.71,1563.04
				c-32.32-17.9-64.74-36.3-97.19-54.79c-19.56,15.66-38.6,30.56-57.17,44.64c30.81,14.79,61.65,29.13,92.48,42.65
				C584.11,1585.74,604.73,1574.91,625.71,1563.04z M719.68,1613.41c-30.72-15.8-61.57-32.45-92.51-49.57
				c-20.89,11.84-41.42,22.66-61.61,32.45c29.33,12.84,58.66,24.93,87.95,35.93C675.37,1627.15,697.42,1620.91,719.68,1613.41z
				 M757.44,1632.4c-11.94-5.86-23.9-11.88-35.88-18.03c-22.04,7.48-43.88,13.69-65.54,18.78c27.7,10.35,55.36,19.73,82.96,27.84
				c23.26-0.13,46.57-1.51,69.93-4.26C791.81,1648.98,774.65,1640.86,757.44,1632.4z M3066.83,550.03l0.87-0.02l-1.88-0.03l-0.37,0
				L3066.83,550.03z M3029.47,550.93c4.18-0.13,8.4-0.23,12.59-0.34c-4.65-0.14-9.27-0.26-13.91-0.39
				c-4.31,0.04-8.69,0.02-12.98,0.08C3019.92,550.48,3024.7,550.71,3029.47,550.93z M2994.22,552.24c6-0.25,12.05-0.45,18.08-0.67
				c-7.01-0.3-13.98-0.56-20.95-0.82c-6.06,0.12-12.13,0.23-18.16,0.38C2980.18,551.49,2987.18,551.85,2994.22,552.24z
				 M2959.41,553.9c6.64-0.35,13.24-0.73,19.93-1.04c-8.44-0.44-16.88-0.89-25.26-1.28c-6.8,0.2-13.49,0.5-20.23,0.74
				C2942.34,552.83,2950.85,553.34,2959.41,553.9z M785.43,1587.71c-31.96-19.94-64.13-40.5-96.45-61.27
				c-20.46,13.14-40.58,25.33-60.37,36.59c31.09,17.2,62.08,33.91,92.94,49.75C742.66,1605.59,763.95,1597.24,785.43,1587.71z
				 M878.82,1644.22c-30.38-17.7-61.01-36.33-91.84-55.55c-21.38,9.52-42.57,17.85-63.58,25.05c11.58,5.93,23.13,11.74,34.67,17.41
				c17.93,8.81,35.81,17.26,53.62,25.3C834.02,1653.7,856.4,1649.64,878.82,1644.22z M967.48,1693.24
				c-28.66-14.89-57.6-30.96-86.77-47.92c-22.16,5.42-44.29,9.53-66.37,12.32c27.82,12.5,55.48,23.95,82.94,34.08
				C920.78,1693.63,944.18,1694.19,967.48,1693.24z M1050.05,1732.9c-26.33-11.5-52.94-24.33-79.81-38.22
				c-22.45,1.02-44.99,0.67-67.62-0.98C952.5,1711.8,1001.72,1725.44,1050.05,1732.9z M656.48,1505.51
				c-23.19-14.94-46.44-29.92-69.74-44.79c-19.5,16.19-38.49,31.73-57.03,46.58c32.54,18.53,65.04,36.98,97.45,54.92
				c19.84-11.27,40-23.47,60.52-36.62C677.29,1518.92,666.89,1512.22,656.48,1505.51z M3106.54,551.63
				c4.04-0.13,8.11-0.22,12.16-0.34c-4.54-0.13-9.09-0.28-13.61-0.4c-4.48,0.04-8.99,0.06-13.45,0.12
				C3096.61,551.22,3101.56,551.41,3106.54,551.63z M3070.6,552.99c5.8-0.25,11.59-0.49,17.43-0.71
				c-6.94-0.28-13.86-0.56-20.76-0.82c-5.97,0.12-11.92,0.26-17.86,0.41C3056.44,552.22,3063.52,552.61,3070.6,552.99z
				 M3035.29,554.7c6.74-0.36,13.42-0.77,20.21-1.09c-8.59-0.44-17.14-0.84-25.68-1.24c-6.83,0.2-13.56,0.5-20.34,0.75
				C3018.05,553.63,3026.65,554.15,3035.29,554.7z M3000.45,556.76c7.65-0.49,15.32-0.97,23.03-1.41c-9.7-0.6-19.36-1.15-28.98-1.68
				c-7.72,0.31-15.37,0.69-23.03,1.05C2981.1,555.38,2990.75,556.05,3000.45,556.76z M945.1,1624.07
				c-31.43-21.63-63.16-44-95.14-66.75c-20.64,11.32-41.11,21.58-61.4,30.67c30.96,19.3,61.73,38,92.24,55.74
				C902.21,1638.49,923.64,1632.01,945.1,1624.07z M1037.28,1685.6c-29.89-19.22-60.12-39.49-90.64-60.47
				c-21.34,7.94-42.66,14.43-63.94,19.71c29.47,17.11,58.7,33.32,87.64,48.29C992.76,1692.1,1015.08,1689.63,1037.28,1685.6z
				 M1125.03,1739.28c-28.25-16.28-56.88-33.86-85.84-52.45c-21.92,4.05-43.95,6.6-66.07,7.73c27.75,14.3,55.23,27.44,82.4,39.16
				C1078.91,1737.11,1102.09,1739.03,1125.03,1739.28z M1206.64,1782.92c-25.94-12.68-52.26-26.79-78.92-42.09
				c-22.11-0.13-44.45-1.82-66.98-4.88c2.96,1.26,5.91,2.5,8.86,3.72C1116.31,1759.03,1162.07,1773.94,1206.64,1782.92z
				 M748.27,1484.7c-34.28-24.45-68.77-48.89-103.38-72.86c-19.48,16.54-38.47,32.53-57,47.93c23.17,14.79,46.3,29.69,69.37,44.55
				c10.6,6.83,21.18,13.64,31.74,20.44C708.43,1512.26,728.18,1498.92,748.27,1484.7z M791.21,1515.38
				c-13.87-9.92-27.79-19.87-41.73-29.82c-20.05,14.21-39.77,27.54-59.18,40.03c32.41,20.83,64.67,41.45,96.71,61.43
				c20.36-9.08,40.9-19.33,61.6-30.65C829.56,1542.82,810.43,1529.12,791.21,1515.38z M3219.29,551.27l0.08,0l-0.27,0
				L3219.29,551.27z M3183.08,552.26c3.99-0.13,8-0.25,12.01-0.37c-5.04-0.14-10.04-0.27-15.05-0.39c-3.6,0.04-7.16,0.11-10.75,0.16
				C3173.88,551.85,3178.49,552.05,3183.08,552.26z M3146.81,553.62c6.19-0.27,12.47-0.47,18.69-0.7
				c-7.61-0.3-15.19-0.57-22.75-0.83c-5.76,0.12-11.43,0.32-17.15,0.47C3132.66,552.9,3139.72,553.25,3146.81,553.62z
				 M3111.74,555.39c7-0.39,14.04-0.73,21.08-1.07c-8.67-0.44-17.35-0.87-25.96-1.25c-7.08,0.22-14.12,0.49-21.16,0.76
				C3094.35,554.32,3103.04,554.85,3111.74,555.39z M3076.99,557.54c7.51-0.51,15.02-1.01,22.58-1.47
				c-9.59-0.58-19.16-1.13-28.68-1.65c-7.86,0.33-15.71,0.67-23.52,1.06C3057.21,556.14,3067.08,556.83,3076.99,557.54z
				 M3042.96,560.07c7.86-0.64,15.72-1.28,23.66-1.85c-10.4-0.73-20.74-1.41-31.06-2.08c-8.35,0.45-16.73,0.86-25.02,1.38
				C3021.3,558.33,3032.11,559.18,3042.96,560.07z M1102.74,1668.93c-30.8-22.97-61.98-46.82-93.48-71.19
				c-20.36,10.24-40.69,19.17-61,26.79c30.67,21.07,61.04,41.42,91.06,60.7C1060.57,1681.28,1081.72,1675.91,1102.74,1668.93z
				 M1193.73,1734.75c-29.42-20.5-59.27-42.18-89.49-64.7c-20.89,6.99-41.89,12.42-63,16.41c29.26,18.76,58.19,36.49,86.72,52.87
				C1150.11,1739.44,1172.05,1737.96,1193.73,1734.75z M1280.22,1792.14c-27.77-17.38-56-36.18-84.64-56.11
				c-21.44,3.25-43.12,4.77-65.02,4.78c27.54,15.75,54.71,30.23,81.47,43.15C1235.08,1788.37,1257.83,1791.17,1280.22,1792.14z
				 M1360.74,1838.98c-25.54-13.61-51.55-28.78-77.97-45.25c-21.58-0.82-43.48-3.33-65.69-7.35c29.05,13.84,57.61,25.82,85.61,35.56
				C1322.32,1828.77,1341.68,1834.49,1360.74,1838.98z M807.64,1440.87c-34.65-26.64-69.53-53.06-104.55-78.84
				c-19.48,16.77-38.5,33.06-57.08,48.86c34.65,24,69.17,48.46,103.49,72.94C768.57,1470.3,787.94,1455.99,807.64,1440.87z
				 M909.56,1520.04c-33.33-26.04-66.94-52.27-100.76-78.28c-19.67,15.1-39.03,29.41-58.09,42.94c13.81,9.85,27.59,19.7,41.32,29.53
				c19.4,13.88,38.73,27.7,57.97,41.39C869.7,1544.79,889.54,1533.01,909.56,1520.04z M921.94,1529.72l-11.16-8.73
				c-19.98,12.96-39.78,24.76-59.43,35.58c32.07,22.81,63.9,45.24,95.41,66.92c20.38-7.61,40.78-16.52,61.2-26.76
				C979.53,1574.73,950.84,1552.31,921.94,1529.72z M3260.79,552.8c3.97-0.14,7.96-0.25,11.94-0.37
				c-5.11-0.14-10.21-0.27-15.29-0.39c-3.61,0.05-7.21,0.1-10.81,0.16C3251.32,552.36,3256.08,552.6,3260.79,552.8z M3224.76,554.22
				c5.81-0.26,11.63-0.52,17.47-0.75c-7.67-0.29-15.24-0.51-22.86-0.77c-5.55,0.13-11.08,0.27-16.61,0.43
				C3210.07,553.47,3217.41,553.84,3224.76,554.22z M3188.97,556.03c6.89-0.39,13.76-0.8,20.69-1.14c-8.8-0.43-17.55-0.82-26.3-1.2
				c-7.03,0.23-14,0.52-20.99,0.79C3171.22,554.97,3180.08,555.49,3188.97,556.03z M3154.15,558.21c7.53-0.52,15.05-1.05,22.64-1.51
				c-9.95-0.59-19.86-1.13-29.74-1.65c-7.63,0.34-15.18,0.76-22.75,1.14C3134.21,556.84,3144.16,557.51,3154.15,558.21z
				 M3119.78,560.81c7.99-0.66,16-1.3,24.06-1.89c-10.66-0.73-21.29-1.44-31.87-2.1c-8.17,0.45-16.28,0.97-24.38,1.49
				C3098.27,559.1,3109.01,559.94,3119.78,560.81z M3086.25,563.79c8.23-0.79,16.48-1.54,24.78-2.25
				c-11.32-0.9-22.59-1.75-33.83-2.56c-8.45,0.57-16.86,1.18-25.23,1.83C3063.35,561.75,3074.78,562.75,3086.25,563.79z
				 M1164.2,1643.68c-31.39-26.06-63.18-52.8-95.31-79.88c-19.43,12.36-38.84,23.41-58.24,33.22
				c31.58,24.43,62.84,48.33,93.71,71.35C1124.42,1661.63,1144.37,1653.45,1164.2,1643.68z M1257.53,1719.86
				c-30.24-24.15-60.94-49.29-92.03-75.09c-19.77,9.77-39.65,17.96-59.64,24.73c30.38,22.63,60.37,44.39,89.93,64.97
				C1216.6,1731.27,1237.19,1726.43,1257.53,1719.86z M1347.26,1789.29c-28.94-21.58-58.39-44.44-88.28-68.28
				c-20.23,6.6-40.7,11.45-61.41,14.7c28.95,20.11,57.48,39.07,85.52,56.56C1304.83,1793.07,1326.23,1792.14,1347.26,1789.29z
				 M1432.65,1849.91c-27.36-18.32-55.26-38.2-83.65-59.33c-20.77,2.9-41.9,3.94-63.35,3.27c27.26,16.93,54.07,32.47,80.37,46.32
				C1388.66,1845.25,1410.88,1848.58,1432.65,1849.91z M1512.06,1899.36c-25.15-14.34-50.83-30.38-77.01-47.85
				c-20.97-1.15-42.36-4.14-64.14-8.78c44.25,23,87.07,41.17,128.2,53.09C1503.45,1897.08,1507.76,1898.25,1512.06,1899.36z
				 M865.93,1394.55c-34.62-28.15-69.48-55.92-104.49-82.93c-19.53,16.91-38.6,33.4-57.25,49.46c35.04,25.8,69.95,52.24,104.62,78.9
				C827.55,1425.57,846.6,1410.42,865.93,1394.55z M968.24,1479.11c-33.46-28.01-67.21-56.01-101.18-83.65
				c-19.33,15.86-38.35,31.01-57.09,45.41c33.85,26.03,67.48,52.28,100.84,78.34C929.79,1506.88,948.94,1493.48,968.24,1479.11z
				 M1050.44,1548.25c-26.8-22.6-53.84-45.39-81.06-68.18c-19.28,14.36-38.4,27.75-57.37,40.09l10.79,8.44
				c29.08,22.73,57.94,45.29,86.54,67.41c19.43-9.8,38.89-20.84,58.36-33.21L1050.44,1548.25z M3339.86,553.19
				c3.88-0.14,7.78-0.27,11.67-0.39c-4.98-0.12-10.01-0.28-14.98-0.39c-4.25,0.06-8.47,0.14-12.69,0.21
				C3329.2,552.82,3334.5,552.98,3339.86,553.19z M3302.78,554.68c5.77-0.27,11.54-0.53,17.34-0.76
				c-7.27-0.26-14.58-0.55-21.81-0.78c-6.24,0.15-12.43,0.33-18.63,0.5C3287.37,553.99,3295.03,554.3,3302.78,554.68z
				 M3266.93,556.53c6.69-0.39,13.38-0.78,20.11-1.13c-8.75-0.4-17.49-0.81-26.2-1.18c-7.02,0.24-14.02,0.51-20.99,0.79
				C3248.84,555.5,3257.86,556,3266.93,556.53z M3231.53,558.79c7.57-0.53,15.13-1.08,22.77-1.55c-9.82-0.56-19.6-1.09-29.34-1.59
				c-7.9,0.35-15.76,0.73-23.59,1.14C3211.38,557.43,3221.44,558.1,3231.53,558.79z M3197.09,561.44
				c7.98-0.67,15.98-1.34,24.03-1.94c-10.69-0.72-21.34-1.39-31.95-2.04c-8.31,0.46-16.59,0.97-24.84,1.5
				C3175.22,559.76,3186.13,560.58,3197.09,561.44z M3163.51,564.5c8.25-0.82,16.52-1.6,24.85-2.33
				c-11.39-0.88-22.73-1.72-34.02-2.52c-8.58,0.59-17.12,1.2-25.62,1.87C3140.26,562.46,3151.87,563.46,3163.51,564.5z
				 M3130.55,567.99c8.37-0.95,16.78-1.87,25.24-2.73c-11.98-1.05-23.92-2.05-35.8-3.01c-8.72,0.71-17.4,1.45-26.04,2.24
				C3106.09,565.6,3118.3,566.78,3130.55,567.99z M1316.89,1695.12c-30.82-27.18-62.1-55.15-93.78-83.61
				c-18.62,12.35-37.36,23.18-56.2,32.58c31.17,25.87,61.95,51.07,92.26,75.26C1278.63,1712.95,1297.88,1704.91,1316.89,1695.12z
				 M1409.01,1774.88c-29.8-25.22-60.12-51.55-90.9-78.68c-18.93,9.8-38.1,17.87-57.5,24.3c30.03,23.95,59.61,46.9,88.68,68.54
				C1369.54,1786.17,1389.45,1781.5,1409.01,1774.88z M1497.71,1847.62c-28.56-22.55-57.69-46.52-87.34-71.59
				c-19.44,6.64-39.24,11.35-59.38,14.28c28.67,21.31,56.85,41.34,84.46,59.77C1456.65,1851.22,1477.41,1850.47,1497.71,1847.62z
				 M1582.2,1911.15c-27.03-19.17-54.67-40.02-82.87-62.25c-20.05,2.9-40.55,3.77-61.48,2.78c27.01,17.96,53.49,34.41,79.38,49.01
				C1539.41,1906.17,1561.08,1909.74,1582.2,1911.15z M1660.64,1962.86c-24.8-14.97-50.22-31.76-76.22-50.13
				c-20.37-1.22-41.25-4.46-62.61-9.49C1570.29,1930.25,1616.68,1950.76,1660.64,1962.86z M923.27,1346.11
				c-34.2-29.02-68.62-57.55-103.21-85.26l-25.7,22.26c-10.74,9.31-21.34,18.49-31.82,27.57c35.02,27.02,69.88,54.8,104.51,82.96
				C885.51,1378.46,904.24,1362.63,923.27,1346.11z M1025.01,1434.22c-33.29-29.32-66.86-58.49-100.66-87.19
				c-19.01,16.51-37.74,32.34-56.19,47.51c33.99,27.65,67.75,55.68,101.23,83.7C987.8,1464.51,1006.33,1449.89,1025.01,1434.22z
				 M1124.57,1522.89c-32.5-29.18-65.34-58.51-98.46-87.7c-18.67,15.66-37.18,30.28-55.56,44.01c27.14,22.72,54.09,45.43,80.8,67.96
				l17.6,14.83C1087.48,1550.18,1106.02,1537.18,1124.57,1522.89z M1177.7,1570.67c-17.23-15.51-34.58-31.13-52.02-46.79
				c-18.53,14.29-37.04,27.29-55.55,39.12c32.19,27.13,64.03,53.91,95.47,80.01c18.9-9.38,37.68-20.19,56.35-32.54
				C1207.28,1597.29,1192.53,1584.02,1177.7,1570.67z M3419.5,553.46c4.04-0.15,8.09-0.27,12.15-0.41
				c-5.07-0.11-10.15-0.23-15.2-0.33c-4.35,0.07-8.73,0.11-13.06,0.19C3408.77,553.1,3414.12,553.26,3419.5,553.46z M3381.61,555.01
				c6.09-0.28,12.2-0.54,18.33-0.8c-7.35-0.24-14.73-0.51-22.04-0.72c-6.35,0.16-12.7,0.31-19.02,0.5
				C3366.45,554.32,3374.02,554.66,3381.61,555.01z M3344.81,556.94c7.19-0.42,14.42-0.81,21.66-1.18
				c-8.89-0.39-17.8-0.79-26.62-1.14c-7.31,0.25-14.59,0.53-21.84,0.83C3326.9,555.92,3335.86,556.44,3344.81,556.94z
				 M3309.58,559.22c7.64-0.55,15.32-1.05,23.02-1.53c-9.96-0.54-19.94-1.09-29.83-1.58c-7.89,0.36-15.76,0.75-23.6,1.17
				C3289.29,557.91,3299.41,558.55,3309.58,559.22z M3274.9,561.93c8.17-0.69,16.39-1.34,24.64-1.96
				c-10.87-0.7-21.69-1.37-32.46-2.01c-8.36,0.48-16.68,0.99-24.97,1.55C3252.99,560.27,3263.94,561.09,3274.9,561.93z
				 M3240.9,565.07c8.37-0.84,16.79-1.62,25.24-2.37c-11.53-0.86-23.01-1.69-34.44-2.48c-8.61,0.61-17.18,1.25-25.71,1.93
				C3217.58,563.09,3229.21,564.06,3240.9,565.07z M3207.93,568.64c8.44-0.98,16.93-1.9,25.46-2.79
				c-12.09-1.03-24.13-2.02-36.13-2.97c-8.71,0.73-17.39,1.5-26.02,2.32C3183.42,566.3,3195.64,567.45,3207.93,568.64z
				 M3175.65,572.66c8.51-1.14,17.08-2.22,25.69-3.25c-12.61-1.21-25.16-2.37-37.64-3.47c-8.83,0.87-17.62,1.77-26.36,2.74
				C3150.06,569.96,3162.82,571.28,3175.65,572.66z M1465.84,1749.39c-30.42-28.26-61.34-57.44-92.72-87.22
				c-17.65,12.81-35.55,23.86-53.66,33.32c30.86,27.2,61.26,53.59,91.13,78.87C1429.35,1767.91,1447.78,1759.62,1465.84,1749.39z
				 M1557.1,1832.6c-29.47-26.25-59.53-53.74-90.1-82.14c-18,10.23-36.36,18.56-55.05,25.04c29.77,25.17,59.03,49.22,87.7,71.84
				C1519.25,1844.47,1538.41,1839.6,1557.1,1832.6z M1645.09,1908.52c-28.29-23.49-57.21-48.53-86.71-74.79
				c-18.58,7.02-37.62,11.94-57.1,14.9c28.45,22.41,56.34,43.41,83.59,62.68C1605.48,1912.51,1625.57,1911.66,1645.09,1908.52z
				 M1728.86,1974.75c-26.75-19.94-54.19-41.69-82.25-64.97c-19.3,3.19-39.16,4.14-59.54,3.08c26.82,18.9,53.04,36.12,78.58,51.37
				c2.74,0.72,5.48,1.4,8.21,2.05C1692.66,1970.78,1711.01,1973.64,1728.86,1974.75z M1806.56,2028.56
				c-24.53-15.53-49.75-33.03-75.63-52.25c-18.61-1.02-37.75-3.95-57.41-8.64c-1.19-0.28-2.4-0.6-3.6-0.9
				C1718,1995.11,1763.67,2016.37,1806.56,2028.56z M979.75,1295.83c-33.4-29.29-67-58.04-100.77-85.93
				c-19.69,16.99-38.97,33.67-57.84,50.01c34.59,27.71,69.01,56.24,103.2,85.26C942.55,1329.34,961.01,1312.9,979.75,1295.83z
				 M1079.94,1385.73c-32.79-30.02-65.85-59.77-99.12-88.96c-18.73,17.07-37.19,33.51-55.39,49.33
				c33.81,28.7,67.39,57.88,100.69,87.22C1043.93,1418.35,1061.86,1402.53,1079.94,1385.73z M1178.76,1477.56
				c-32.28-30.37-64.89-60.75-97.76-90.86c-18.06,16.78-35.99,32.62-53.78,47.58c33.13,29.2,65.98,58.54,98.49,87.72
				C1143.38,1508.34,1161.07,1493.6,1178.76,1477.56z M1276.14,1569.85c-31.75-30.23-63.87-60.76-96.33-91.3
				c-17.68,16.04-35.34,30.78-53,44.45c17.38,15.6,34.67,31.16,51.84,46.62c14.92,13.43,29.75,26.78,44.51,40.04
				C1240.93,1597.82,1258.6,1584.56,1276.14,1569.85z M1304.29,1596.67l-27.07-25.79c-17.52,14.72-35.16,27.97-52.91,39.81
				c31.73,28.5,63.05,56.52,93.92,83.73c18.15-9.44,36.09-20.5,53.77-33.3C1349.66,1639.91,1327.08,1618.39,1304.29,1596.67z
				 M3501.02,553.54c4.11-0.15,8.26-0.27,12.38-0.41c-4.87-0.1-9.78-0.21-14.64-0.29c-4.43,0.08-8.89,0.13-13.3,0.22
				C3490.64,553.22,3495.81,553.37,3501.02,553.54z M3462.18,555.17c6.26-0.3,12.57-0.55,18.87-0.82
				c-7.56-0.23-15.11-0.46-22.62-0.66c-6.3,0.17-12.6,0.33-18.86,0.52C3447.07,554.52,3454.62,554.84,3462.18,555.17z
				 M3424.87,557.17c7.33-0.43,14.7-0.83,22.07-1.21c-9.19-0.38-18.36-0.73-27.48-1.07c-7.25,0.26-14.46,0.55-21.65,0.85
				C3406.78,556.18,3415.85,556.69,3424.87,557.17z M3388.74,559.55c7.91-0.57,15.86-1.1,23.84-1.61
				c-10.37-0.53-20.69-1.02-30.97-1.49c-7.97,0.38-15.88,0.79-23.78,1.22C3368.09,558.26,3378.4,558.89,3388.74,559.55z
				 M3353.77,562.32c8.22-0.71,16.49-1.37,24.79-2.01c-11.32-0.7-22.53-1.32-33.74-1.93c-8.2,0.48-16.34,1.02-24.48,1.57
				C3331.44,560.7,3342.59,561.49,3353.77,562.32z M3319.56,565.53c8.42-0.86,16.88-1.67,25.38-2.43
				c-11.79-0.86-23.53-1.66-35.22-2.45c-8.61,0.62-17.15,1.3-25.67,2C3295.84,563.57,3307.68,564.53,3319.56,565.53z
				 M3286.28,569.18c8.53-1.01,17.11-1.97,25.74-2.87c-12.37-1.03-24.7-2.01-36.95-2.94c-8.76,0.75-17.45,1.57-26.12,2.41
				C3261.33,566.86,3273.78,568,3286.28,569.18z M3253.83,573.3c8.53-1.16,17.09-2.27,25.71-3.32c-12.89-1.21-25.71-2.36-38.48-3.47
				c-8.77,0.88-17.48,1.84-26.15,2.82C3227.82,570.6,3240.8,571.92,3253.83,573.3z M3222.35,577.87c8.48-1.31,17.01-2.58,25.59-3.77
				c-13.34-1.39-26.62-2.73-39.84-4.02c-8.78,1.03-17.5,2.12-26.18,3.26C3195.33,574.79,3208.8,576.3,3222.35,577.87z
				 M1611.2,1805.36c-30.17-29.37-60.9-59.76-92.13-90.86c-16.58,13.64-33.51,25.32-50.77,35.23c30.64,28.46,60.77,56,90.3,82.31
				C1576.58,1825.19,1594.12,1816.37,1611.2,1805.36z M1701.97,1892.03c-29.28-27.3-59.18-55.93-89.67-85.6
				c-17.02,11.01-34.51,19.85-52.43,26.74c29.63,26.37,58.68,51.5,87.08,75.06C1665.84,1905.05,1684.19,1899.7,1701.97,1892.03z
				 M1789.56,1971.13c-28.11-24.43-56.93-50.53-86.39-77.98c-17.69,7.68-35.95,13.06-54.73,16.31c28.33,23.47,56,45.39,82.97,65.43
				C1751.42,1975.96,1770.83,1974.78,1789.56,1971.13z M1872.85,2040.02c-26.55-20.69-53.87-43.36-81.89-67.68
				c-18.52,3.71-37.69,5-57.47,4.1c26.64,19.74,52.59,37.64,77.78,53.42c7.87,2.12,15.64,3.96,23.32,5.45
				C1847.63,2037.85,1860.39,2039.42,1872.85,2040.02z M1950.02,2095.83c-24.31-16.05-49.4-34.22-75.22-54.28
				c-13.17-0.53-26.67-2.16-40.48-4.84c-6.26-1.22-12.6-2.67-18.99-4.3C1863.09,2061.98,1908.12,2083.8,1950.02,2095.83z
				 M1035.47,1243.97c-32.23-29-64.65-57.42-97.22-85.04c-19.79,16.95-39.18,33.63-58.17,50.02
				c33.76,27.89,67.35,56.64,100.73,85.91C998.77,1278.48,1016.99,1261.52,1035.47,1243.97z M1133.1,1334
				c-31.96-30.12-64.17-59.89-96.58-89.08c-18.47,17.55-36.68,34.5-54.65,50.89c33.26,29.19,66.31,58.93,99.1,88.95
				C1098.22,1368.71,1115.6,1351.78,1133.1,1334z M1230.32,1427.24c-31.78-30.95-63.86-61.79-96.18-92.27
				c-17.5,17.77-34.87,34.7-52.11,50.75c32.87,30.11,65.48,60.49,97.77,90.87C1196.63,1461.28,1213.47,1444.81,1230.32,1427.24z
				 M1327.05,1522.54c-31.56-31.38-63.48-62.9-95.71-94.3c-16.84,17.57-33.67,34.03-50.49,49.34c32.47,30.55,64.61,61.1,96.38,91.35
				C1293.95,1554.85,1310.56,1539.41,1327.05,1522.54z M1423.12,1618.54c-31.27-31.34-62.97-63.08-95.04-94.97
				c-16.48,16.87-33.07,32.31-49.77,46.39c9.01,8.59,18.01,17.16,26.96,25.69c22.86,21.78,45.5,43.36,67.91,64.63
				C1390.05,1647.98,1406.71,1634.12,1423.12,1618.54z M1430.58,1626l-6.4-6.41c-16.4,15.58-33.03,29.44-49.88,41.75
				c31.42,29.82,62.39,59.02,92.84,87.32c17.29-9.89,34.26-21.57,50.87-35.21C1489.27,1684.82,1460.12,1655.61,1430.58,1626z
				 M3585.01,553.42c4.2-0.16,8.42-0.31,12.63-0.46c-5.19-0.08-10.33-0.13-15.5-0.2c-4.27,0.08-8.57,0.15-12.82,0.24
				C3574.56,553.14,3579.77,553.27,3585.01,553.42z M3545.28,555.13c6.14-0.3,12.28-0.58,18.46-0.85
				c-7.51-0.2-15.05-0.41-22.52-0.58c-6.5,0.18-12.98,0.37-19.44,0.58C3529.6,554.56,3537.41,554.82,3545.28,555.13z
				 M3506.48,557.21c7.35-0.44,14.71-0.87,22.12-1.26c-9.22-0.34-18.44-0.68-27.59-0.98c-7.42,0.27-14.77,0.59-22.14,0.91
				C3488.02,556.28,3497.26,556.75,3506.48,557.21z M3469.29,559.65c7.96-0.58,15.91-1.15,23.94-1.66
				c-10.39-0.49-20.73-0.95-31.04-1.39c-8.17,0.39-16.29,0.81-24.39,1.26C3448.25,558.43,3458.75,559.02,3469.29,559.65z
				 M3433.45,562.48c8.36-0.73,16.78-1.41,25.22-2.06c-11.33-0.66-22.54-1.24-33.75-1.82c-8.66,0.52-17.31,1.03-25.89,1.62
				C3410.47,560.95,3421.9,561.68,3433.45,562.48z M3398.64,565.76c8.5-0.87,17.06-1.67,25.65-2.45c-11.89-0.81-23.7-1.58-35.5-2.33
				c-8.72,0.63-17.42,1.28-26.05,1.99C3374.66,563.86,3386.63,564.79,3398.64,565.76z M3364.97,569.52c8.65-1.04,17.36-2,26.1-2.93
				c-12.44-0.99-24.82-1.93-37.16-2.84c-8.92,0.77-17.82,1.57-26.64,2.44C3339.78,567.25,3352.35,568.37,3364.97,569.52z
				 M3332.46,573.72c8.6-1.19,17.26-2.3,25.95-3.38c-12.95-1.17-25.84-2.3-38.68-3.38c-8.89,0.91-17.75,1.84-26.54,2.86
				C3306.21,571.07,3319.31,572.37,3332.46,573.72z M3300.71,578.43c8.59-1.36,17.23-2.64,25.92-3.87
				c-13.46-1.37-26.86-2.67-40.19-3.94c-8.89,1.06-17.75,2.16-26.54,3.32C3273.44,575.38,3287.05,576.87,3300.71,578.43z
				 M3270,583.61c8.45-1.52,16.96-2.96,25.52-4.34c-13.91-1.57-27.74-3.07-41.51-4.53c-8.77,1.2-17.49,2.45-26.15,3.76
				C3241.83,580.13,3255.89,581.85,3270,583.61z M1660.15,1766.49c-30.63-31.85-61.79-64.48-93.43-97.64
				c-15.18,16.77-30.7,31.65-46.54,44.76c31.27,31.14,62.03,61.55,92.22,90.95C1628.75,1793.91,1644.68,1781.26,1660.15,1766.49z
				 M1753.13,1862.17c-30.06-30.52-60.73-62.16-91.96-94.62c-15.45,14.77-31.35,27.41-47.67,38.08
				c30.56,29.73,60.53,58.43,89.87,85.79C1720.5,1883.9,1737.1,1874.21,1753.13,1862.17z M1843.84,1952.48
				c-29.21-28.39-59.12-58.24-89.65-89.23c-15.99,12.04-32.54,21.74-49.61,29.29c29.58,27.56,58.51,53.74,86.73,78.24
				C1809.45,1967.08,1826.98,1961.05,1843.84,1952.48z M1931.31,2034.81c-28.03-25.4-56.83-52.58-86.35-81.24
				c-16.78,8.57-34.21,14.64-52.27,18.41c28.27,24.51,55.83,47.36,82.6,68.17C1894.69,2040.88,1913.38,2039.17,1931.31,2034.81z
				 M2014.4,2106.43c-26.44-21.46-53.72-45.05-81.77-70.43c-17.74,4.41-36.24,6.19-55.42,5.62c26.55,20.57,52.33,39.16,77.27,55.45
				c10.66,2.9,21.11,5.18,31.35,6.76C1995.55,2105.33,2005.06,2106.19,2014.4,2106.43z M2091.24,2164.21
				c-24.16-16.55-49.18-35.41-75-56.29c-9.99-0.17-20.19-1.07-30.62-2.68c-8.96-1.38-18.1-3.3-27.37-5.7
				C2005.77,2130.25,2050.24,2152.5,2091.24,2164.21z M1090.5,1190.72c-30.7-28.2-61.57-55.79-92.57-82.66
				c-19.92,16.89-39.45,33.54-58.59,49.94c32.55,27.59,64.96,56,97.16,84.99C1054.26,1226.11,1072.26,1208.69,1090.5,1190.72z
				 M1184.7,1279.42c-30.85-29.71-61.91-59.02-93.15-87.74c-18.24,17.97-36.24,35.39-53.99,52.27
				c32.39,29.17,64.58,58.93,96.53,89.03C1150.84,1315.94,1167.71,1298.1,1184.7,1279.42z M1279.56,1372.53
				c-31.02-31-62.32-61.76-93.84-92.12c-16.98,18.68-33.85,36.51-50.59,53.55c32.33,30.48,64.4,61.32,96.18,92.27
				C1247.39,1409.4,1263.47,1391.51,1279.56,1372.53z M1374.88,1469.15c-31.13-31.94-62.57-63.89-94.31-95.6
				c-16.08,18.97-32.16,36.86-48.24,53.68c32.23,31.4,64.15,62.91,95.71,94.3C1343.76,1505.38,1359.38,1487.96,1374.88,1469.15z
				 M1470.42,1568.07c-31.14-32.48-62.66-65.18-94.53-97.89c-15.49,18.81-31.1,36.23-46.81,52.37
				c32.08,31.9,63.79,63.67,95.09,95.02C1439.8,1602.66,1455.22,1586.17,1470.42,1568.07z M1556.76,1658.4
				c-28.07-29.43-56.55-59.26-85.32-89.27c-15.19,18.08-30.6,34.57-46.22,49.49l6.37,6.38c29.58,29.65,58.77,58.9,87.54,87.55
				c15.85-13.11,31.39-27.99,46.59-44.77L1556.76,1658.4z M3672.25,553c4.03-0.16,8.03-0.33,12.08-0.48
				c-4.72-0.05-9.45-0.1-14.15-0.14c-4.5,0.09-9.03,0.18-13.51,0.28C3661.86,552.77,3667.04,552.88,3672.25,553z M3630.26,554.82
				c6.42-0.31,12.83-0.62,19.29-0.9c-7.82-0.16-15.6-0.31-23.37-0.46c-6.5,0.19-12.96,0.41-19.42,0.62
				C3614.58,554.33,3622.39,554.56,3630.26,554.82z M3589.97,556.97c7.66-0.46,15.38-0.87,23.1-1.28c-9.36-0.3-18.73-0.6-28.02-0.86
				c-7.91,0.3-15.79,0.61-23.64,0.95C3570.91,556.18,3580.4,556.55,3589.97,556.97z M3551.53,559.54c8.3-0.61,16.64-1.17,25.01-1.7
				c-10.44-0.44-20.88-0.89-31.23-1.29c-8.55,0.41-17.08,0.84-25.56,1.31C3530.3,558.39,3540.9,558.96,3551.53,559.54z
				 M3514.86,562.47c8.54-0.74,17.11-1.44,25.73-2.11c-11.42-0.61-22.78-1.17-34.1-1.72c-8.79,0.53-17.54,1.09-26.25,1.69
				C3491.74,561.01,3503.25,561.71,3514.86,562.47z M3478.97,565.87c8.75-0.91,17.55-1.76,26.4-2.57
				c-12.08-0.77-24.07-1.5-36.05-2.21c-8.89,0.65-17.72,1.34-26.52,2.08C3454.8,564.03,3466.88,564.94,3478.97,565.87z
				 M3444.82,569.66c8.61-1.04,17.26-2.04,25.97-2.97c-12.46-0.94-24.95-1.9-37.31-2.77c-8.98,0.78-17.89,1.63-26.78,2.51
				C3419.35,567.46,3432.06,568.54,3444.82,569.66z M3411.65,573.95c8.75-1.23,17.57-2.37,26.42-3.47
				c-13.15-1.14-26.25-2.24-39.28-3.28c-9.03,0.93-18.02,1.91-26.96,2.95C3385.04,571.37,3398.32,572.63,3411.65,573.95z
				 M3379.75,578.76c8.64-1.39,17.35-2.69,26.1-3.95c-13.63-1.33-27.2-2.62-40.72-3.85c-8.96,1.08-17.9,2.19-26.76,3.38
				C3352.1,575.76,3365.89,577.24,3379.75,578.76z M3348.92,584.07c8.51-1.56,17.09-3.03,25.7-4.45c-14.06-1.54-28.07-3.03-42-4.46
				c-8.89,1.23-17.74,2.51-26.52,3.87C3320.31,580.65,3334.57,582.33,3348.92,584.07z M3318.93,589.93
				c8.39-1.74,16.84-3.39,25.34-4.98c-14.53-1.76-28.98-3.44-43.36-5.08c-8.74,1.39-17.45,2.83-26.08,4.35
				C3289.46,586.06,3304.15,587.96,3318.93,589.93z M1798.79,1819.63c-30.62-33.1-61.82-67.08-93.54-101.67
				c-13.93,18.24-28.29,34.39-43.05,48.61c31.27,32.51,61.98,64.19,92.08,94.75C1769.64,1849.65,1784.48,1835.79,1798.79,1819.63z
				 M1892,1919.33c-30.09-31.75-60.85-64.72-92.21-98.61c-14.28,16.15-29.11,30-44.45,41.67c30.6,31.06,60.56,60.95,89.82,89.4
				C1861.4,1943.39,1877.03,1932.65,1892,1919.33z M1982.93,2013.41c-29.24-29.53-59.23-60.64-89.92-93.01
				c-14.94,13.3-30.53,24.06-46.73,32.48c29.63,28.78,58.55,56.06,86.69,81.54C1950.35,2030.01,1967.02,2023.07,1982.93,2013.41z
				 M2070.61,2099.16c-28.05-26.39-56.94-54.73-86.6-84.68c-15.85,9.66-32.45,16.62-49.75,21.09c28.3,25.58,55.81,49.33,82.46,70.92
				C2035.5,2106.76,2053.48,2104.4,2070.61,2099.16z M2153.79,2173.61c-26.43-22.26-53.77-46.8-81.96-73.3
				c-16.96,5.26-34.75,7.72-53.33,7.62c26.52,21.41,52.19,40.67,76.95,57.45c11.93,3.21,23.57,5.54,34.89,6.87
				C2138.31,2173.2,2146.13,2173.66,2153.79,2173.61z M2230.46,2233.38c-24.08-17.05-49.1-36.61-75.01-58.38
				c-8.24,0.12-16.67-0.32-25.27-1.34c-10.16-1.2-20.59-3.2-31.24-5.91C2146.33,2199.56,2190.32,2222.18,2230.46,2233.38z
				 M1144.88,1136.29c-28.98-27.05-58.12-53.56-87.37-79.39c-7.22,6.28-14.38,12.59-21.44,18.95l-0.02,0.01
				c-12.49,10.51-24.82,20.93-37.02,31.27c30.98,26.85,61.83,54.42,92.49,82.59C1109.07,1172.42,1126.86,1154.61,1144.88,1136.29z
				 M1234.82,1222.31c-29.46-28.82-59.11-57.23-88.91-85.06c-18.02,18.32-35.8,36.13-53.35,53.43c31.22,28.7,62.26,58,93.09,87.68
				C1201.93,1260.44,1218.32,1241.8,1234.82,1222.31z M1326.55,1313.89c-30.01-30.53-60.27-60.78-90.72-90.59
				c-16.51,19.48-32.89,38.12-49.17,56.04c31.5,30.35,62.8,61.1,93.8,92.09C1295.83,1353.28,1311.19,1334.11,1326.55,1313.89z
				 M1419.82,1410.33c-30.48-31.98-61.24-63.85-92.26-95.42c-15.36,20.21-30.72,39.38-46.08,57.54
				c31.73,31.72,63.17,63.65,94.3,95.59C1390.56,1450.05,1405.25,1430.89,1419.82,1410.33z M1514.13,1510.5
				c-30.77-33.02-61.88-66.12-93.31-99.11c-14.57,20.55-29.25,39.7-44.03,57.69c31.88,32.72,63.41,65.43,94.56,97.92
				C1485.82,1549.69,1500.08,1530.84,1514.13,1510.5z M1609.16,1613.22c-30.94-33.64-62.3-67.6-94.03-101.65
				c-14.05,20.34-28.31,39.18-42.77,56.48c28.81,30.06,57.31,59.92,85.43,89.38l8.86,9.29
				C1581.13,1650.63,1595.31,1632.85,1609.16,1613.22z M1683,1693.69c-23.99-26.18-48.29-52.69-72.83-79.38
				c-13.85,19.62-28.02,37.39-42.5,53.47c31.67,33.19,62.86,65.85,93.51,97.72c14.78-14.22,29.15-30.38,43.08-48.63L1683,1693.69z
				 M3764.41,552.13c4.28-0.18,8.55-0.36,12.85-0.53c-4.84-0.01-9.65-0.02-14.47-0.03c-4.4,0.11-8.83,0.21-13.22,0.33
				C3754.5,551.97,3759.46,552.05,3764.41,552.13z M3719.09,554.15c6.89-0.34,13.83-0.65,20.77-0.97c-8-0.11-15.97-0.22-23.91-0.31
				c-6.82,0.22-13.6,0.45-20.38,0.69C3703.39,553.75,3711.22,553.94,3719.09,554.15z M3676.66,556.48
				c8.03-0.48,16.08-0.94,24.17-1.37c-9.54-0.24-19.06-0.47-28.54-0.69c-8.25,0.32-16.48,0.65-24.67,1.02
				C3657.28,555.77,3666.94,556.11,3676.66,556.48z M3636.33,559.12c8.56-0.62,17.14-1.21,25.78-1.76
				c-10.64-0.39-21.26-0.76-31.82-1.11c-8.81,0.43-17.57,0.89-26.3,1.38C3614.75,558.11,3625.49,558.59,3636.33,559.12z
				 M3597.62,562.17c8.9-0.77,17.87-1.49,26.87-2.18c-11.52-0.54-23.04-1.1-34.46-1.6c-9.15,0.55-18.25,1.14-27.31,1.76
				C3574.3,560.81,3585.93,561.47,3597.62,562.17z M3561.14,565.65c8.99-0.92,18.04-1.79,27.13-2.62
				c-12.3-0.72-24.51-1.39-36.7-2.06c-9.2,0.67-18.37,1.37-27.48,2.13C3536.4,563.93,3548.73,564.77,3561.14,565.65z M3525.8,569.59
				c8.98-1.09,18.01-2.11,27.09-3.08c-12.69-0.89-25.38-1.78-37.97-2.61c-9.29,0.81-18.53,1.67-27.72,2.58
				C3500,567.47,3512.89,568.53,3525.8,569.59z M3492.16,573.96c8.81-1.24,17.67-2.42,26.58-3.53c-13.3-1.08-26.53-2.13-39.71-3.13
				c-9.08,0.94-18.11,1.93-27.09,2.99C3465.29,571.47,3478.69,572.7,3492.16,573.96z M3459.63,578.86
				c8.75-1.42,17.57-2.76,26.42-4.04c-13.76-1.29-27.46-2.53-41.1-3.73c-9.04,1.1-18.02,2.25-26.95,3.47
				C3431.8,575.94,3445.69,577.38,3459.63,578.86z M3428.45,584.31c8.63-1.61,17.33-3.12,26.08-4.58
				c-14.31-1.51-28.54-2.95-42.7-4.34c-8.96,1.26-17.88,2.57-26.73,3.97C3399.48,580.95,3413.93,582.61,3428.45,584.31z
				 M3398.36,590.3c8.43-1.78,16.93-3.47,25.47-5.1c-14.7-1.72-29.34-3.38-43.9-4.99c-8.78,1.42-17.53,2.88-26.2,4.45
				C3368.53,586.47,3383.42,588.36,3398.36,590.3z M3369.32,596.84c8.25-1.97,16.56-3.85,24.93-5.65
				c-15.11-1.95-30.16-3.85-45.12-5.67c-8.66,1.59-17.27,3.24-25.81,4.99C3338.57,592.55,3353.9,594.65,3369.32,596.84z
				 M1934.24,1872.45c-30.75-34.44-62.12-69.84-94.05-105.95c-12.64,19.93-25.8,37.61-39.45,53.16
				c31.4,33.93,62.19,66.93,92.31,98.72C1907.39,1905.48,1921.13,1890.22,1934.24,1872.45z M2028.04,1976.39
				c-30.25-33.06-61.2-67.44-92.81-102.84c-13.1,17.74-26.84,32.99-41.17,45.89c30.76,32.44,60.82,63.61,90.12,93.21
				C1999.52,2003.18,2014.15,1991.18,2028.04,1976.39z M2119.55,2074.5c-29.38-30.76-59.58-63.2-90.52-97.02
				c-13.86,14.75-28.47,26.77-43.78,36.26c29.77,30.05,58.76,58.48,86.89,84.94C2088.76,2093.42,2104.58,2085.44,2119.55,2074.5z
				 M2207.7,2163.87c-28.15-27.46-57.22-57-87.13-88.3c-14.91,10.93-30.67,18.93-47.22,24.25c28.41,26.7,55.95,51.37,82.56,73.75
				C2174.09,2173.25,2191.36,2170.12,2207.7,2163.87z M2291.16,2241.26c-26.46-23.09-53.92-48.62-82.31-76.29
				c-16.18,6.27-33.29,9.51-51.27,9.99c26.54,22.25,52.15,42.19,76.75,59.46c12.25,3.21,24.14,5.39,35.65,6.37
				C2277.19,2241.41,2284.25,2241.57,2291.16,2241.26z M2367.82,2303.09c-24.02-17.56-49.09-37.83-75.13-60.49
				c-7.44,0.4-15.05,0.27-22.83-0.4c-10.43-0.89-21.17-2.73-32.2-5.45C2284.97,2269.62,2328.52,2292.51,2367.82,2303.09z
				 M1197.3,1079.43c-26.3-24.84-52.73-49.18-79.25-72.99c-20.35,16.19-40.16,32.72-59.48,49.51c29.23,25.8,58.33,52.3,87.29,79.32
				l1.13-1.14C1163.29,1115.49,1180.08,1097.27,1197.3,1079.43z M1282.09,1161.43c-27.77-27.46-55.7-54.51-83.76-81.02
				c-17.23,17.83-34,36.05-50.29,54.69l-0.03,0.03l-1.11,1.12c29.78,27.81,59.39,56.18,88.83,84.98
				c7.69-9.09,15.4-18.28,23.14-27.72C1266.48,1182.67,1274.23,1171.99,1282.09,1161.43z M1371.45,1251.7
				c-29.25-30.13-58.71-59.94-88.34-89.27c-7.82,10.51-15.53,21.13-23.09,31.91l-0.03,0.04c-7.77,9.48-15.51,18.71-23.23,27.83
				c30.43,29.79,60.67,60.03,90.67,90.54c14.45-19.06,28.9-38.94,43.35-59.89C1371,1252.47,1371.23,1252.09,1371.45,1251.7z
				 M1461.97,1346.57c-29.59-31.52-59.43-62.84-89.49-93.82c-0.17,0.28-0.33,0.56-0.49,0.84l-0.03,0.06
				c-14.51,21.04-29.02,41-43.53,60.13c31.01,31.55,61.76,63.41,92.22,95.36C1434.52,1389.51,1448.29,1368.63,1461.97,1346.57z
				 M1554.54,1446.57c-30.22-33.07-60.76-66.11-91.57-98.93c-13.68,22.05-27.45,42.93-41.33,62.55
				c31.43,32.99,62.55,66.1,93.32,99.11C1528.36,1489.84,1541.55,1468.95,1554.54,1446.57z M1648.65,1550.65
				c-30.67-34.23-61.71-68.62-93.1-102.97c-12.99,22.36-26.19,43.24-39.58,62.7c31.73,34.05,63.1,68.02,94.03,101.66
				C1623.18,1593.27,1636.06,1572.81,1648.65,1550.65z M1743.77,1657.47c-30.94-34.92-62.33-70.22-94.11-105.7
				c-12.59,22.15-25.47,42.6-38.65,61.36c24.62,26.77,48.98,53.35,73.04,79.6l21.07,22.99
				C1718.4,1698.22,1731.29,1678.87,1743.77,1657.47z M1809.38,1731.65c-21.3-24.1-42.86-48.49-64.62-73.05
				c-12.47,21.38-25.37,40.72-38.65,58.21c31.75,34.62,62.97,68.63,93.61,101.76c13.66-15.56,26.82-33.25,39.46-53.2
				C1829.31,1754.19,1819.37,1742.95,1809.38,1731.65z M3864.91,550.52c4.76-0.21,9.53-0.42,14.31-0.63l-14.46,0.11l-14.44,0.46
				l5.91,0.03L3864.91,550.52z M3814.11,552.92c7.55-0.38,15.15-0.74,22.75-1.11l-24.27-0.1c-7.45,0.26-14.87,0.53-22.29,0.81
				C3798.2,552.66,3806.15,552.79,3814.11,552.92z M3767.75,555.5c8.67-0.52,17.37-1.02,26.11-1.49
				c-9.83-0.16-19.62-0.31-29.39-0.46c-8.76,0.36-17.48,0.73-26.17,1.13C3748.09,554.94,3757.89,555.21,3767.75,555.5z
				 M3724.22,558.34c9.2-0.66,18.45-1.28,27.73-1.87c-10.97-0.31-21.93-0.62-32.82-0.9c-9.34,0.46-18.64,0.95-27.9,1.47
				C3702.19,557.46,3713.17,557.89,3724.22,558.34z M3683.71,561.53c9.36-0.8,18.78-1.56,28.24-2.27
				c-11.8-0.47-23.54-0.92-35.23-1.36c-9.55,0.57-19.06,1.18-28.52,1.83C3660,560.31,3671.81,560.9,3683.71,561.53z M3644.95,565.11
				c9.36-0.95,18.77-1.85,28.23-2.7c-12.31-0.64-24.6-1.27-36.8-1.87c-9.65,0.7-19.26,1.44-28.82,2.23
				C3619.98,563.53,3632.43,564.3,3644.95,565.11z M3608.62,569.17c9.32-1.12,18.71-2.18,28.14-3.18
				c-13.1-0.84-26.1-1.62-39.08-2.39c-9.46,0.83-18.88,1.69-28.24,2.62C3582.43,567.16,3595.53,568.17,3608.62,569.17z
				 M3573.96,573.68c9.09-1.28,18.24-2.48,27.44-3.62c-13.44-1.02-26.86-2.03-40.18-2.98c-9.47,0.98-18.89,2.01-28.26,3.11
				C3546.57,571.32,3560.21,572.47,3573.96,573.68z M3540.73,578.68c8.94-1.46,17.94-2.84,27-4.14
				c-14.05-1.23-27.94-2.37-41.83-3.51c-9.18,1.11-18.3,2.29-27.37,3.53C3512.53,575.89,3526.59,577.26,3540.73,578.68z
				 M3508.91,584.27c8.75-1.64,17.57-3.21,26.44-4.69c-14.42-1.44-28.77-2.83-43.05-4.17c-9.09,1.28-18.12,2.63-27.09,4.06
				C3479.7,581.01,3494.27,582.61,3508.91,584.27z M3478.56,590.39c8.51-1.83,17.09-3.57,25.72-5.22
				c-14.89-1.67-29.72-3.3-44.47-4.87c-8.91,1.45-17.76,2.96-26.55,4.57C3448.29,586.66,3463.38,588.48,3478.56,590.39z
				 M3449.18,597.12c8.34-2.03,16.74-3.97,25.2-5.82c-15.33-1.91-30.56-3.75-45.73-5.54c-8.71,1.63-17.37,3.32-25.95,5.11
				C3418.12,592.89,3433.61,594.97,3449.18,597.12z M3420.95,604.42c8.1-2.22,16.26-4.36,24.48-6.39
				c-15.69-2.16-31.31-4.25-46.84-6.27c-8.49,1.8-16.93,3.68-25.31,5.65C3389.08,599.67,3404.98,602.01,3420.95,604.42z
				 M2066.82,1924.63c-30.99-35.87-62.67-72.81-94.93-110.52c-11.34,21.82-23.28,41.2-35.8,58.29
				c31.65,35.44,62.64,69.86,92.91,102.95C2042.3,1961.03,2054.92,1944.19,2066.82,1924.63z M2161.52,2033.08
				c-30.49-34.45-61.75-70.32-93.71-107.31c-11.9,19.53-24.52,36.35-37.82,50.66c31.01,33.9,61.28,66.41,90.72,97.23
				C2135.11,2062.96,2148.73,2049.5,2161.52,2033.08z M2253.93,2135.5c-29.62-32.07-60.12-65.95-91.43-101.32
				c-12.78,16.38-26.38,29.83-40.77,40.56c30.01,31.4,59.17,61.03,87.41,88.56C2224.97,2157.04,2239.92,2147.87,2253.93,2135.5z
				 M2342.8,2228.68c-28.33-28.59-57.64-59.4-87.88-92.1c-13.96,12.34-28.86,21.53-44.65,27.84c28.6,27.85,56.24,53.54,82.87,76.74
				C2310.7,2240.14,2327.27,2236.08,2342.8,2228.68z M2426.74,2309.2c-26.56-23.96-54.2-50.55-82.86-79.44
				c-15.4,7.41-31.82,11.55-49.22,12.72c26.63,23.14,52.25,43.79,76.75,61.55c11.92,3,23.46,4.89,34.57,5.51
				C2413.08,2309.93,2419.99,2309.82,2426.74,2309.2z M2503.55,2373.18c-24.02-18.08-49.18-39.1-75.39-62.7
				c-7.22,0.73-14.63,0.89-22.24,0.47c-10.12-0.57-20.58-2.16-31.36-4.69C2421.86,2340.2,2465.03,2363.33,2503.55,2373.18z
				 M1252.69,1024.95c-23.68-22.63-47.46-44.85-71.32-66.63c-21.25,15.42-41.97,31.16-62.18,47.21
				c26.47,23.77,52.85,48.07,79.11,72.87C1215.93,1060.17,1234.05,1042.34,1252.69,1024.95z M1330.05,1100.54
				c-25.33-25.26-50.78-50.17-76.34-74.6c-18.64,17.38-36.75,35.21-54.4,53.45c28.02,26.47,55.9,53.47,83.62,80.89
				C1298.17,1139.85,1313.86,1119.93,1330.05,1100.54z M1412.47,1184.35c-26.97-27.97-54.13-55.58-81.41-82.8
				c-16.18,19.38-31.87,39.3-47.1,59.73c29.6,29.29,59.01,59.06,88.23,89.15C1385.16,1227.79,1398.59,1205.77,1412.47,1184.35z
				 M1499.89,1276.71c-28.6-30.73-57.39-61.22-86.4-91.32c-13.88,21.43-27.31,43.45-40.27,66.09
				c30.08,30.99,59.93,62.32,89.53,93.85c6.67-10.78,13.32-21.75,19.94-33.13C1488.3,1300.19,1494.05,1288.38,1499.89,1276.71z
				 M1591.83,1377.07c-30.03-33.27-60.35-66.41-90.91-99.26c-5.76,11.53-11.43,23.18-16.97,35.04l-0.02,0.04l-0.01,0.02
				c-6.69,11.51-13.42,22.59-20.17,33.49c30.8,32.81,61.32,65.84,91.53,98.89C1567.65,1423.92,1579.84,1401.21,1591.83,1377.07z
				 M1684.47,1481.01c-30.22-34.3-60.77-68.62-91.62-102.81c-11.99,24.12-24.18,46.82-36.55,68.19
				c31.39,34.35,62.42,68.74,93.1,102.97C1661.36,1528.17,1673.06,1505.43,1684.47,1481.01z M1778.93,1589.25
				c-30.76-35.53-61.92-71.29-93.44-107.07c-11.41,24.4-23.12,47.12-35.1,68.29c31.8,35.48,63.18,70.78,94.12,105.7
				C1756.37,1635.73,1767.84,1613.43,1778.93,1589.25z M1874.65,1700.45c-31.09-36.29-62.68-73.04-94.69-110.02
				c-11.1,24.16-22.58,46.44-34.45,66.87c21.86,24.68,43.53,49.19,64.93,73.4c9.9,11.2,19.74,22.34,29.54,33.41
				C1852.02,1745,1863.58,1723.82,1874.65,1700.45z M1935.98,1772.13c-19.89-23.26-40-46.78-60.32-70.49
				c-11.08,23.33-22.65,44.5-34.69,63.6c31.96,36.14,63.35,71.58,94.13,106.04c12.51-17.1,24.45-36.49,35.78-58.35
				C1959.32,1799.43,1947.69,1785.83,1935.98,1772.13z M3980.3,547.52l18.38-0.98c-5.31,0.14-10.6,0.26-15.89,0.39
				c-6.02,0.26-12.03,0.52-18.02,0.77C3969.94,547.64,3975.11,547.58,3980.3,547.52z M3919.75,550.75
				c8.89-0.49,17.82-0.97,26.77-1.44c-8.68,0.09-17.34,0.17-25.96,0.24c-8.72,0.37-17.42,0.73-26.08,1.11
				C3902.87,550.69,3911.3,550.72,3919.75,550.75z M3866.17,553.82c9.88-0.6,19.81-1.18,29.77-1.75
				c-10.36-0.04-20.68-0.09-30.98-0.14c-9.8,0.44-19.56,0.89-29.28,1.35l28.08,0.49L3866.17,553.82z M3817.75,557
				c10.17-0.72,20.38-1.41,30.64-2.07c-11.45-0.2-22.86-0.39-34.22-0.59c-10.18,0.52-20.31,1.06-30.4,1.63
				C3795.07,556.31,3806.38,556.65,3817.75,557z M3773.15,560.41c10.2-0.86,20.47-1.66,30.78-2.42
				c-12.09-0.37-24.14-0.73-36.13-1.07c-10.29,0.62-20.54,1.26-30.72,1.96C3749.06,559.37,3761.08,559.88,3773.15,560.41z
				 M3732.32,564.17c9.98-0.99,20.01-1.93,30.11-2.82c-12.78-0.55-25.47-1.08-38.15-1.6c-10.14,0.73-20.22,1.51-30.25,2.32
				C3706.75,562.77,3719.49,563.45,3732.32,564.17z M3693.6,568.35c9.76-1.15,19.59-2.23,29.47-3.26
				c-13.14-0.73-26.27-1.45-39.3-2.14c-10.04,0.86-20.04,1.77-29.97,2.74C3667.02,566.56,3680.26,567.43,3693.6,568.35z
				 M3657.44,573.04c9.55-1.33,19.16-2.59,28.83-3.77c-13.82-0.94-27.54-1.84-41.24-2.72c-9.76,0.99-19.45,2.06-29.09,3.18
				C3629.71,570.79,3643.56,571.9,3657.44,573.04z M3623.17,578.18c9.22-1.5,18.5-2.91,27.84-4.24
				c-14.16-1.14-28.26-2.26-42.29-3.33c-9.53,1.15-19,2.36-28.42,3.66C3594.53,575.53,3608.8,576.83,3623.17,578.18z
				 M3590.52,583.88c8.91-1.68,17.87-3.28,26.9-4.79c-14.51-1.36-28.97-2.69-43.36-3.97c-9.28,1.31-18.5,2.68-27.66,4.14
				C3561.04,580.75,3575.75,582.29,3590.52,583.88z M3559.6,590.17c8.69-1.88,17.43-3.67,26.24-5.37
				c-15.05-1.6-30.05-3.17-44.96-4.67c-9.1,1.49-18.14,3.04-27.11,4.69C3528.98,586.54,3544.25,588.32,3559.6,590.17z
				 M3529.88,597.04c8.44-2.08,16.94-4.07,25.5-5.95c-15.5-1.85-30.93-3.64-46.28-5.38c-8.8,1.66-17.53,3.4-26.21,5.23
				C3498.48,592.91,3514.15,594.96,3529.88,597.04z M3501.4,604.52c8.17-2.28,16.4-4.47,24.71-6.55
				c-15.85-2.1-31.64-4.15-47.33-6.12c-8.6,1.85-17.13,3.79-25.61,5.82C3469.17,599.89,3485.24,602.16,3501.4,604.52z
				 M3474.02,612.63c7.92-2.5,15.9-4.89,23.95-7.17c-16.27-2.37-32.45-4.66-48.55-6.88c-8.33,2.04-16.61,4.16-24.82,6.39
				C3440.99,607.45,3457.45,609.99,3474.02,612.63z M2196.79,1975.94c-31.35-37.41-63.42-75.96-96.14-115.37
				c-10.02,23.88-20.72,45.13-32.08,63.93c32.01,37.04,63.3,72.96,93.82,107.45C2174.64,2016.05,2186.12,1997.46,2196.79,1975.94z
				 M2292.72,2089.22c-30.84-35.94-62.5-73.41-94.93-112.09c-10.68,21.47-22.17,40.04-34.42,55.92
				c31.37,35.45,61.93,69.4,91.61,101.52C2268.45,2122.49,2281.05,2107.43,2292.72,2089.22z M2386.26,2196.19
				c-29.93-33.44-60.81-68.83-92.57-105.84c-11.67,18.17-24.26,33.19-37.72,45.28c30.34,32.83,59.75,63.74,88.16,92.4
				C2359.18,2220.66,2373.24,2210.13,2386.26,2196.19z M2476.12,2293.47c-28.59-29.79-58.24-61.98-88.9-96.21
				c-12.99,13.9-27.01,24.44-42.01,31.87c28.85,29.07,56.67,55.82,83.37,79.88C2445.53,2307.21,2461.4,2302.14,2476.12,2293.47z
				 M2560.72,2377.28c-26.7-24.87-54.59-52.58-83.57-82.75c-14.6,8.67-30.34,13.81-47.14,15.76c26.82,24.1,52.52,45.48,77.02,63.77
				c11.14,2.64,21.9,4.16,32.23,4.46C2546.62,2378.73,2553.77,2378.31,2560.72,2377.28z M2637.89,2443.55
				c-24.07-18.64-49.38-40.44-75.84-65.03c-7.37,1.17-14.99,1.64-22.84,1.4c-9.46-0.27-19.27-1.58-29.4-3.8
				C2557.23,2411.19,2600.11,2434.56,2637.89,2443.55z M1311.19,973.21c-21.24-20.51-42.56-40.7-63.94-60.53
				c-22.1,14.6-43.65,29.55-64.71,44.8c23.81,21.74,47.55,43.93,71.19,66.52C1272.39,1006.63,1291.54,989.7,1311.19,973.21z
				 M1381.45,1042.43c-22.98-23.08-46.06-45.85-69.23-68.23c-19.66,16.49-38.81,33.42-57.46,50.77
				c25.52,24.4,50.92,49.27,76.21,74.48C1347.31,1079.92,1364.13,1060.91,1381.45,1042.43z M1456.98,1119.79
				c-24.72-25.77-49.57-51.26-74.54-76.35c-17.31,18.48-34.13,37.49-50.47,57.02c27.24,27.17,54.36,54.74,81.29,82.67
				C1427.37,1161.41,1441.94,1140.29,1456.98,1119.79z M1537.84,1205.6c-26.46-28.56-53.08-56.84-79.86-84.77
				c-15.04,20.51-29.6,41.63-43.7,63.35c28.96,30.05,57.72,60.5,86.28,91.18C1512.54,1251.44,1524.95,1228.17,1537.84,1205.6z
				 M1624.12,1300.26c-28.21-31.43-56.63-62.66-85.27-93.58c-12.88,22.57-25.29,45.85-37.26,69.77
				c30.57,32.85,60.88,65.99,90.92,99.26c0.7-1.4,1.4-2.75,2.09-4.15C1604,1347.07,1613.92,1323.43,1624.12,1300.26z
				 M1715.54,1403.58c-29.84-34.19-59.99-68.29-90.38-102.16c-10.11,22.98-19.94,46.41-29.26,70.69l-0.01,0.04l-0.01,0.02
				c-0.78,1.59-1.57,3.1-2.35,4.67c30.84,34.17,61.38,68.48,91.59,102.77c7.24-15.56,14.37-31.74,21.38-48.67
				C1709.42,1421.66,1712.49,1412.65,1715.54,1403.58z M1810.14,1513.31c-30.82-36.13-62-72.36-93.52-108.48
				c-2.95,8.81-5.94,17.55-8.78,26.55l-0.02,0.06c-7.1,17.16-14.34,33.57-21.68,49.33c31.52,35.78,62.68,71.53,93.45,107.07
				C1790.13,1564.75,1800.32,1539.94,1810.14,1513.31z M1905.49,1626.08c-31.02-36.97-62.46-74.21-94.3-111.54
				c-9.84,26.61-20.04,51.41-30.59,74.48c32.01,36.99,63.6,73.74,94.7,110.04C1885.83,1676.74,1895.89,1652.44,1905.49,1626.08z
				 M2002.24,1742c-31.4-37.78-63.32-76.08-95.69-114.67c-9.61,26.33-19.69,50.61-30.21,72.91c20.45,23.87,40.7,47.55,60.72,70.97
				c11.59,13.56,23.1,27.01,34.54,40.38C1982.37,1790.66,1992.58,1767.49,2002.24,1742z M2062.82,1814.99
				c-19.63-23.66-39.48-47.6-59.55-71.73c-9.66,25.46-19.9,48.6-30.68,69.51c32.29,37.73,63.97,74.69,94.98,110.59
				c11.35-18.81,22.04-40.1,32.04-64.01C2087.44,1844.66,2075.19,1829.89,2062.82,1814.99z M4217.43,532.98
				c3.14-0.31,6.28-0.63,9.42-0.95l-2.42,0.21c-3.66,0.35-7.33,0.7-10.98,1.03C4214.78,533.19,4216.1,533.08,4217.43,532.98z
				 M4124.54,541.01c10.45-0.79,20.93-1.61,31.44-2.47c-8.18,0.49-16.36,0.96-24.51,1.41c-9.42,0.67-18.81,1.3-28.19,1.91
				C4110.36,541.59,4117.45,541.31,4124.54,541.01z M4044.81,546.55c12.36-0.81,24.77-1.63,37.24-2.48
				c-10.66,0.37-21.3,0.73-31.9,1.05c-11.48,0.66-22.92,1.3-34.31,1.92C4025.46,546.89,4035.13,546.73,4044.81,546.55z
				 M3977.57,550.87c9.82-0.64,19.66-1.27,29.55-1.9l8-0.51c-11.62,0.17-23.2,0.33-34.75,0.47l-12.42,0.66l-23.24,1.23
				C3955.64,550.85,3966.59,550.87,3977.57,550.87z M3920.03,554.75c12.04-0.86,24.14-1.68,36.32-2.49
				c-12.22-0.02-24.39-0.06-36.52-0.1c-11.83,0.64-23.62,1.3-35.32,1.98C3896.3,554.35,3908.14,554.55,3920.03,554.75z
				 M3869.33,558.6c11.53-0.95,23.13-1.84,34.8-2.7c-12.68-0.22-25.31-0.44-37.9-0.66c-11.51,0.7-22.98,1.43-34.37,2.19
				C3844.3,557.82,3856.79,558.21,3869.33,558.6z M3823.63,562.66c11.08-1.08,22.26-2.07,33.47-3.03
				c-13.15-0.41-26.23-0.82-39.29-1.22c-11.11,0.79-22.16,1.62-33.15,2.5C3797.6,561.48,3810.59,562.07,3823.63,562.66z
				 M3782.22,567.06c10.51-1.21,21.09-2.35,31.74-3.42c-13.64-0.62-27.21-1.21-40.74-1.8c-10.66,0.89-21.23,1.86-31.76,2.87
				C3755,565.47,3768.56,566.25,3782.22,567.06z M3743.55,571.88c10.07-1.37,20.21-2.66,30.41-3.88
				c-13.91-0.82-27.78-1.63-41.57-2.4c-10.37,1.03-20.69,2.13-30.93,3.3C3715.44,569.88,3729.44,570.86,3743.55,571.88z
				 M3707.57,577.24c9.71-1.56,19.49-3.02,29.33-4.41c-14.48-1.05-28.87-2.06-43.22-3.05c-9.97,1.18-19.85,2.45-29.69,3.79
				C3678.45,574.76,3692.98,575.98,3707.57,577.24z M3673.52,583.1c9.34-1.75,18.77-3.37,28.25-4.93
				c-14.81-1.27-29.54-2.5-44.21-3.69c-9.57,1.33-19.07,2.75-28.52,4.25C3643.78,580.12,3658.66,581.61,3673.52,583.1z
				 M3641.87,589.53c8.87-1.93,17.8-3.76,26.8-5.48c-15.18-1.51-30.34-3-45.38-4.42c-9.31,1.51-18.55,3.1-27.73,4.79
				C3610.93,586.07,3626.36,587.77,3641.87,589.53z M3611.55,596.58c8.61-2.14,17.29-4.17,26.04-6.1
				c-15.7-1.77-31.32-3.49-46.87-5.15c-8.96,1.69-17.84,3.49-26.68,5.36C3579.79,592.59,3595.64,594.56,3611.55,596.58z
				 M3582.58,604.25c8.31-2.36,16.7-4.59,25.15-6.73c-16.05-2.03-32.02-4-47.91-5.91c-8.71,1.89-17.35,3.88-25.93,5.97
				C3550.03,599.74,3566.26,601.96,3582.58,604.25z M3555.03,612.58c7.97-2.58,16.01-5.04,24.12-7.38
				c-16.43-2.3-32.77-4.53-49.04-6.7c-8.4,2.08-16.74,4.27-25.02,6.54C3521.65,607.48,3538.31,610,3555.03,612.58z M3528.78,621.6
				c7.71-2.8,15.49-5.47,23.33-8.04c-16.9-2.6-33.73-5.13-50.45-7.57c-8.15,2.27-16.23,4.68-24.25,7.17
				C3494.43,615.88,3511.57,618.71,3528.78,621.6z M2324.4,2026.22c-31.8-39.03-64.36-79.29-97.62-120.49
				c-8.69,26.08-18.13,49.36-28.31,70.01c32.46,38.73,64.17,76.25,95.03,112.23C2304.67,2070.36,2314.98,2049.85,2324.4,2026.22z
				 M2421.83,2144.62c-31.27-37.53-63.43-76.69-96.4-117.15c-9.44,23.58-19.77,44.05-30.95,61.63
				c31.82,37.08,62.76,72.55,92.74,106.06C2399.74,2181.56,2411.29,2164.79,2421.83,2144.62z M2516.77,2256.45
				c-30.33-34.92-61.68-71.92-93.96-110.66c-10.55,20.11-22.1,36.84-34.62,50.44c30.75,34.34,60.49,66.62,89.15,96.49
				C2491.58,2284.1,2504.74,2272.1,2516.77,2256.45z M2607.81,2358.06c-28.91-31.07-58.96-64.69-90.09-100.52
				c-12.01,15.6-25.15,27.59-39.36,36.24c29.18,30.38,57.25,58.27,84.1,83.25C2578.78,2374.35,2593.92,2368.12,2607.81,2358.06z
				 M2693.29,2445.42c-26.91-25.85-55.12-54.76-84.5-86.31c-13.8,10.04-28.83,16.32-45.03,19.13c27.04,25.1,52.85,47.23,77.37,66.06
				c10.13,2.21,19.89,3.38,29.26,3.43C2678.3,2447.77,2685.94,2447,2693.29,2445.42z M2771.01,2514.13
				c-24.18-19.23-49.7-41.86-76.5-67.53c-7.74,1.74-15.78,2.59-24.12,2.55c-8.59-0.04-17.51-1.06-26.72-2.9
				C2691.29,2482.52,2733.95,2506.11,2771.01,2514.13z M1372.76,924.24c-18.92-18.48-37.89-36.78-56.91-54.74
				c-22.99,13.78-45.45,27.9-67.38,42.37c21.34,19.8,42.62,39.95,63.82,60.42C1331.93,955.84,1352.09,939.82,1372.76,924.24z
				 M1436.19,987.28c-20.73-20.96-41.53-41.65-62.4-62.04c-20.67,15.58-40.83,31.59-60.48,48.03
				c23.12,22.35,46.17,45.07,69.11,68.11C1399.84,1022.83,1417.76,1004.79,1436.19,987.28z M1505.06,1058.19
				c-22.52-23.59-45.16-46.89-67.87-69.89c-18.43,17.5-36.34,35.54-53.77,54.1c24.93,25.05,49.73,50.49,74.42,76.22
				C1473.09,1097.87,1488.82,1077.71,1505.06,1058.19z M1579.42,1137.43c-24.33-26.34-48.79-52.45-73.38-78.21
				c-16.24,19.52-31.96,39.69-47.21,60.44c26.74,27.89,53.33,56.13,79.75,84.64C1551.72,1181.33,1565.32,1159.02,1579.42,1137.43z
				 M1659.34,1225.43c-26.14-29.21-52.45-58.23-78.93-86.92c-14.1,21.59-27.69,43.91-40.83,66.88
				c28.6,30.87,56.99,62.06,85.17,93.45C1635.86,1273.68,1647.31,1249.09,1659.34,1225.43z M1744.77,1322.34
				c-27.91-32.11-56.06-64.08-84.42-95.78c-12.02,23.66-23.47,48.26-34.57,73.44c30.36,33.83,60.47,67.89,90.27,102.03
				C1725.21,1374.71,1734.74,1348.08,1744.77,1322.34z M1835.6,1428.23c-29.63-34.98-59.57-69.92-89.78-104.68
				c-10.02,25.75-19.53,52.4-28.68,79.72c31.53,36.13,62.72,72.37,93.56,108.52c2.6-7.06,5.17-14.2,7.72-21.52
				C1823.89,1469.09,1829.66,1448.49,1835.6,1428.23z M1931.79,1543.06c-31.31-37.78-63.04-75.69-95.09-113.54
				c-5.84,19.98-11.52,40.27-16.91,61.13l-0.02,0.06c-2.64,7.59-5.32,14.99-8.01,22.31c31.83,37.33,63.28,74.56,94.3,111.53
				c8.46-23.35,16.56-48.28,24.28-74.93C1930.8,1547.4,1931.3,1545.24,1931.79,1543.06z M2028.72,1661
				c-31.48-38.59-63.43-77.51-95.79-116.56c-0.41,1.82-0.82,3.62-1.21,5.48l-0.02,0.05c-7.82,26.99-16.02,52.21-24.6,75.82
				c32.38,38.6,64.31,76.9,95.71,114.69C2011.98,1716.15,2020.61,1689.68,2028.72,1661z M2126.86,1781.94
				c-31.82-39.36-64.18-79.3-97.04-119.59c-8.12,28.66-16.78,55.08-25.95,79.4c20.24,24.35,40.26,48.48,60.05,72.34
				c12.2,14.71,24.31,29.3,36.33,43.78C2109.75,1834.99,2118.62,1809.71,2126.86,1781.94z M2189.95,1860.09
				c-20.42-25.32-41.1-50.94-62.01-76.81c-8.25,27.74-17.15,52.97-26.67,75.83c32.74,39.43,64.83,78.01,96.2,115.44
				c10.16-20.67,19.59-43.99,28.25-70.13C2213.89,1889.75,2201.97,1874.98,2189.95,1860.09z M4404.79,509.11
				c9.86-1.89,19.73-3.9,29.59-5.99c-7.81,1.48-15.62,2.9-23.42,4.27c-9.53,1.8-19.04,3.49-28.55,5.13
				C4389.87,511.42,4397.33,510.29,4404.79,509.11z M4306.83,525.12c16.87-2.33,33.8-4.86,50.76-7.64
				c-13.76,1.88-27.5,3.63-41.19,5.28c-15.06,2.09-30.08,3.99-45.06,5.77C4283.14,527.47,4294.97,526.33,4306.83,525.12z
				 M4206.11,536.93c19.39-1.92,38.86-4.02,58.42-6.36c-15.68,1.38-31.3,2.65-46.88,3.82c-17.04,1.7-34.02,3.25-50.92,4.68
				C4179.82,538.41,4192.95,537.7,4206.11,536.93z M4114.55,544.99c18.4-1.46,36.9-3,55.5-4.66c-15.17,0.77-30.29,1.47-45.36,2.1
				c-16.55,1.25-33.01,2.41-49.4,3.53C4088.34,545.66,4101.42,545.35,4114.55,544.99z M4038.89,550.78l10.8-0.82
				c12.65-0.95,25.36-1.91,38.12-2.89c-14.35,0.34-28.64,0.63-42.88,0.89c-12.63,0.82-25.2,1.63-37.71,2.43l-7.49,0.48
				C4012.73,550.86,4025.79,550.83,4038.89,550.78z M3976.13,555.65c14.33-1.16,28.75-2.28,43.27-3.39
				c-13.97,0.03-27.88,0.04-41.74,0.03c-13.8,0.89-27.51,1.8-41.15,2.74C3949.67,555.24,3962.88,555.45,3976.13,555.65z
				 M3922.56,560.28c12.96-1.21,26.03-2.34,39.17-3.44c-13.94-0.21-27.81-0.44-41.63-0.68c-12.74,0.91-25.41,1.85-38,2.84l7.67,0.25
				L3922.56,560.28z M3875.56,565.06c11.92-1.32,23.93-2.54,36-3.71l-21.84-0.69l-20.33-0.64c-11.9,0.97-23.7,2.01-35.45,3.11
				C3847.76,563.77,3861.64,564.41,3875.56,565.06z M3833.44,570.16c11.03-1.45,22.13-2.81,33.31-4.1
				c-14.41-0.67-28.76-1.33-43.05-1.98c-11.16,1.08-22.24,2.25-33.26,3.48C3804.73,568.41,3819.04,569.28,3833.44,570.16z
				 M3794.81,575.7c10.33-1.61,20.71-3.15,31.18-4.57c-14.62-0.89-29.19-1.78-43.68-2.64c-10.67,1.23-21.29,2.51-31.82,3.91
				C3765.21,573.48,3779.96,574.57,3794.81,575.7z M3758.98,581.78c9.84-1.81,19.77-3.5,29.77-5.1c-15.1-1.14-30.13-2.27-45.09-3.35
				c-10.12,1.38-20.17,2.87-30.15,4.43C3728.6,579.06,3743.75,580.39,3758.98,581.78z M3725.62,588.42c9.3-2,18.66-3.92,28.11-5.7
				c-15.42-1.39-30.74-2.73-46.02-4.04c-9.69,1.56-19.32,3.19-28.87,4.94C3694.35,585.17,3709.95,586.78,3725.62,588.42z
				 M3694.49,595.65c8.84-2.2,17.76-4.28,26.75-6.26c-15.94-1.66-31.8-3.28-47.58-4.85c-9.17,1.72-18.26,3.57-27.29,5.49
				C3662.32,591.85,3678.37,593.72,3694.49,595.65z M3664.78,603.52c8.52-2.44,17.13-4.72,25.8-6.91
				c-16.25-1.93-32.41-3.8-48.5-5.63c-8.9,1.94-17.73,3.98-26.49,6.12C3631.91,599.18,3648.3,601.32,3664.78,603.52z
				 M3636.93,612.08c8.11-2.64,16.26-5.19,24.51-7.58c-16.63-2.21-33.19-4.37-49.66-6.46c-8.56,2.14-17.05,4.37-25.48,6.73
				C3603.09,607.13,3619.97,609.57,3636.93,612.08z M3610.35,621.35c7.81-2.88,15.68-5.65,23.62-8.28
				c-17.14-2.53-34.18-4.97-51.14-7.36c-8.25,2.35-16.46,4.78-24.57,7.37C3575.53,615.76,3592.9,618.51,3610.35,621.35z
				 M3585.01,631.29c7.48-3.11,15.02-6.1,22.65-8.94c-17.53-2.84-34.98-5.6-52.32-8.28c-7.92,2.56-15.78,5.24-23.56,8.05
				C3549.42,625.08,3567.16,628.13,3585.01,631.29z M2449.87,2075.33c-32.33-40.75-65.47-82.81-99.36-125.89
				c-7.33,28.42-15.51,53.88-24.48,76.51c33.01,40.52,65.2,79.72,96.51,117.3C2432.59,2123.79,2441.71,2101.22,2449.87,2075.33z
				 M2549.04,2199.17c-31.79-39.21-64.51-80.15-98.12-122.5c-8.18,25.82-17.33,48.34-27.41,67.77
				c32.35,38.81,63.75,75.89,94.13,110.88C2529.18,2240.06,2539.66,2221.42,2549.04,2199.17z M2645.61,2316.16
				c-30.79-36.48-62.68-75.2-95.57-115.76c-9.4,22.18-19.9,40.77-31.45,56.01c31.23,35.96,61.38,69.68,90.36,100.84
				C2622.37,2347.27,2634.6,2333.65,2645.61,2316.16z M2738.04,2422.38c-29.29-32.43-59.81-67.58-91.5-105.1
				c-11,17.43-23.23,31.01-36.63,41.01c29.56,31.74,57.92,60.82,84.96,86.77C2710.58,2441.4,2725,2433.96,2738.04,2422.38z
				 M2824.59,2513.51c-27.18-26.89-55.75-57.07-85.6-90.09c-12.98,11.54-27.29,19.03-42.88,22.81
				c27.3,26.14,53.25,49.07,77.81,68.46c8.98,1.76,17.64,2.64,25.94,2.49C2808.47,2517.03,2816.72,2515.82,2824.59,2513.51z
				 M2902.87,2584.72c-24.28-19.83-50.01-43.29-77.14-70.08c-8.21,2.49-16.83,3.79-25.85,3.95c-7.57,0.14-15.44-0.57-23.57-2.01
				C2824.14,2554.05,2866.54,2577.77,2902.87,2584.72z M1862.6,1343.16c-27.75-32.84-55.73-65.56-83.93-98.07
				c-11.25,24.78-21.95,50.54-32.26,76.97c30.17,34.71,60.07,69.61,89.67,104.55C1844.5,1397.97,1853.29,1370.07,1862.6,1343.16z
				 M1953.12,1451.64c-29.52-35.8-59.35-71.58-89.45-107.23c-9.3,26.92-18.09,54.83-26.49,83.49c32.02,37.81,63.72,75.67,95,113.41
				C1938.73,1510.54,1945.68,1480.58,1953.12,1451.64z M2049.27,1569.5c-31.29-38.73-62.98-77.62-95.03-116.49
				c-7.43,28.95-14.38,58.9-20.93,89.69c32.38,39.07,64.36,78.03,95.87,116.65c4.52-16.1,8.89-32.86,13.07-50.38
				C2044.5,1595.6,2046.87,1582.52,2049.27,1569.5z M2148.97,1693.96c-32.36-40.69-65.21-81.76-98.52-123
				c-2.32,12.62-4.62,25.29-6.79,38.25l-0.01,0.05c-4.27,17.89-8.74,35-13.37,51.42c32.87,40.29,65.24,80.23,97.06,119.6
				C2135.14,1753.8,2142.35,1725.08,2148.97,1693.96z M2248.79,1820.16c-32.33-41.04-65.24-82.69-98.68-124.76
				c-6.63,31.08-13.87,59.77-21.69,86.22c21.12,26.13,42,52.01,62.63,77.58c11.82,14.64,23.54,29.18,35.19,43.61
				C2234.46,1877.84,2241.99,1850.34,2248.79,1820.16z M2317.38,1907.32c-22.19-28.22-44.68-56.82-67.46-85.74
				c-6.83,30.14-14.38,57.6-22.61,82.54c33.28,41.22,65.87,81.52,97.69,120.58c8.95-22.67,17.1-48.17,24.41-76.65
				C2338.8,1934.57,2328.13,1920.99,2317.38,1907.32z M1437.39,878.08c-16.77-16.58-33.58-32.98-50.43-49.15
				c-23.81,12.92-47.09,26.2-69.84,39.81c18.99,17.92,37.91,36.2,56.79,54.64C1394.56,907.85,1415.7,892.73,1437.39,878.08z
				 M1494.31,935.26c-18.57-18.95-37.21-37.67-55.89-56.16c-21.69,14.64-42.83,29.76-63.48,45.28c20.83,20.36,41.6,41,62.29,61.93
				C1455.75,968.77,1474.77,951.75,1494.31,935.26z M1556.71,999.94c-20.39-21.46-40.86-42.7-61.4-63.66
				c-19.54,16.48-38.57,33.5-57.09,51.05c22.68,22.96,45.28,46.22,67.76,69.77C1522.39,1037.42,1539.31,1018.39,1556.71,999.94z
				 M1624.7,1072.63c-22.23-24.14-44.57-48.03-67-71.66c-17.41,18.45-34.32,37.49-50.73,57.16c24.55,25.71,48.97,51.77,73.25,78.06
				C1594.55,1114.31,1609.39,1093.14,1624.7,1072.63z M1698.4,1153.92c-24.11-26.98-48.35-53.75-72.72-80.23
				c-15.31,20.51-30.15,41.68-44.48,63.59c26.45,28.65,52.73,57.63,78.84,86.81C1672.36,1199.94,1685.13,1176.54,1698.4,1153.92z
				 M1775.4,1241.32c-25.16-28.97-50.51-57.73-75.99-86.27c-13.27,22.62-26.04,46.02-38.35,70.17
				c28.32,31.65,56.42,63.57,84.3,95.63c10.33-26.42,21.03-52.17,32.29-76.94L1775.4,1241.32z M4632.52,446.97
				c0.49-0.2,0.98-0.39,1.47-0.59c-0.68,0.26-1.36,0.53-2.03,0.79L4632.52,446.97z M4564.88,471.75
				c11.14-3.67,22.27-7.54,33.39-11.6c-10.46,3.39-20.92,6.63-31.38,9.75c-10.74,3.41-21.48,6.69-32.22,9.79
				C4544.73,477.15,4554.8,474.49,4564.88,471.75z M4485.99,494.71c16.7-4.27,33.4-8.89,50.1-13.92
				c-15.05,3.8-30.09,7.34-45.11,10.68c-15.81,4-31.61,7.72-47.39,11.16C4457.7,500.15,4471.84,497.52,4485.99,494.71z
				 M4395.07,514.74c21.46-4.03,42.96-8.49,64.48-13.53c-18.15,3.34-36.27,6.43-54.34,9.28c-20.36,3.91-40.69,7.41-60.96,10.58
				C4361.14,519.12,4378.08,517.02,4395.07,514.74z M4292.33,530.96c24.6-3.24,49.31-6.88,74.1-11.1
				c-19.82,2.44-39.58,4.65-59.27,6.66c-22.37,3.09-44.66,5.81-66.84,8.26C4257.59,533.62,4274.93,532.36,4292.33,530.96z
				 M4190.46,542.46c24.21-2.37,48.59-4.94,73.11-7.88c-19.16,1.39-38.24,2.64-57.25,3.76c-21.58,2.14-43.05,4.05-64.39,5.84
				C4158.05,543.67,4174.22,543.1,4190.46,542.46z M4104.08,550.31c20.46-1.78,41.08-3.59,61.84-5.52
				c-17.14,0.61-34.22,1.14-51.23,1.61c-18.66,1.48-37.19,2.89-55.6,4.28C4074.03,550.59,4089.03,550.47,4104.08,550.31z
				 M4034.85,556.43c16.84-1.54,33.81-3.04,50.91-4.52c-15.65,0.14-31.23,0.23-46.76,0.29c-16.02,1.21-31.93,2.42-47.73,3.67
				C4005.74,556.07,4020.26,556.26,4034.85,556.43z M3977.79,561.99c14.38-1.51,28.85-2.94,43.45-4.31
				c-15.06-0.19-30.07-0.39-45.01-0.61c-14.07,1.14-28.02,2.33-41.9,3.59C3948.75,561.1,3963.24,561.55,3977.79,561.99z
				 M3928.97,567.58c12.75-1.6,25.62-3.07,38.56-4.48c-15.02-0.46-29.98-0.93-44.88-1.39c-12.68,1.18-25.24,2.46-37.74,3.79
				C3899.53,566.18,3914.22,566.88,3928.97,567.58z M3886.04,573.46c11.53-1.72,23.15-3.33,34.86-4.84
				c-15.15-0.72-30.24-1.43-45.26-2.14c-11.66,1.29-23.22,2.68-34.71,4.15C3855.92,571.56,3870.94,572.5,3886.04,573.46z
				 M3847.39,579.79c10.57-1.89,21.21-3.68,31.95-5.33c-15.33-0.97-30.59-1.93-45.78-2.86c-10.94,1.44-21.84,2.95-32.62,4.59
				C3816.36,577.36,3831.82,578.56,3847.39,579.79z M3811.75,586.65c9.94-2.09,19.98-4.02,30.08-5.87
				c-15.69-1.24-31.34-2.46-46.89-3.65c-10.25,1.6-20.43,3.32-30.53,5.13C3780.12,583.7,3795.88,585.15,3811.75,586.65z
				 M3779.08,594.14c9.31-2.3,18.69-4.46,28.16-6.5c-16.13-1.52-32.14-2.98-48.1-4.43c-9.72,1.79-19.38,3.67-28.95,5.69
				C3746.41,590.61,3762.69,592.34,3779.08,594.14z M3748.35,602.23c8.81-2.52,17.74-4.85,26.71-7.1
				c-16.52-1.81-32.91-3.54-49.26-5.25c-9.14,1.97-18.2,4.07-27.2,6.27C3715.11,598.12,3731.69,600.15,3748.35,602.23z
				 M3719.82,611.04c8.31-2.73,16.68-5.34,25.15-7.8c-16.84-2.1-33.59-4.15-50.26-6.13c-8.79,2.19-17.52,4.48-26.16,6.92
				C3685.55,606.29,3702.63,608.63,3719.82,611.04z M3692.71,620.55c7.96-2.98,15.99-5.81,24.1-8.51
				c-17.36-2.43-34.6-4.77-51.78-7.07c-8.36,2.4-16.63,4.94-24.85,7.59C3657.59,615.15,3675.11,617.82,3692.71,620.55z
				 M3667.01,630.75c7.57-3.23,15.24-6.26,22.96-9.19c-17.67-2.74-35.26-5.42-52.75-8c-8.03,2.63-15.97,5.39-23.86,8.27
				C3631.16,624.73,3649.02,627.69,3667.01,630.75z M3642.72,641.76c7.22-3.48,14.51-6.8,21.88-9.98
				c-18.09-3.08-36.05-6.04-53.94-8.94c-7.69,2.85-15.31,5.84-22.86,8.94C3606.01,635,3624.32,638.35,3642.72,641.76z
				 M2573.39,2123.23c-32.93-42.56-66.74-86.52-101.33-131.57c-5.97,30.9-12.86,58.62-20.62,83.37
				c33.64,42.41,66.41,83.4,98.23,122.65C2558.59,2176.25,2566.52,2151.51,2573.39,2123.23z M2674.52,2252.77
				c-32.36-40.98-65.74-83.8-100.04-128.13c-6.9,28.2-14.85,52.87-23.81,74.27c32.96,40.65,64.89,79.44,95.73,115.99
				C2656.93,2297.89,2666.32,2277.27,2674.52,2252.77z M2772.93,2375.21c-31.32-38.14-63.81-78.65-97.38-121.15
				c-8.23,24.4-17.65,44.97-28.21,61.96c31.78,37.65,62.39,72.91,91.75,105.43C2751.67,2410.02,2762.96,2394.7,2772.93,2375.21z
				 M2866.96,2486.35c-29.73-33.86-60.78-70.66-93.09-109.98c-9.97,19.4-21.27,34.69-33.84,46.14
				c30.01,33.21,58.73,63.55,86.03,90.54C2841.12,2508.34,2854.78,2499.56,2866.96,2486.35z M2954.73,2581.48
				c-27.49-28-56.47-59.52-86.84-94.08c-12.13,13.15-25.72,21.96-40.68,26.78c27.62,27.26,53.8,51.08,78.45,71.08
				c7.73,1.31,15.19,1.87,22.36,1.59C2937.42,2586.48,2946.32,2584.7,2954.73,2581.48z M3033.81,2655.47
				c-24.44-20.48-50.46-44.9-77.99-72.88c-8.71,3.44-17.96,5.3-27.75,5.68c-6.51,0.25-13.27-0.19-20.24-1.24
				C2955.97,2625.79,2998.2,2649.7,3033.81,2655.47z M1893.32,1261.28c-25.8-30.53-51.78-60.91-77.94-91.06
				c-12.5,23.66-24.51,48.14-36.04,73.47c28.17,32.46,56.12,65.14,83.83,97.93C1872.75,1313.97,1882.77,1287.14,1893.32,1261.28z
				 M1978.13,1362.99c-27.68-33.61-55.61-67.13-83.77-100.47c-10.54,25.87-20.56,52.69-30.15,80.35
				c30.07,35.6,59.86,71.32,89.34,107.07C1961.28,1420.01,1969.49,1391.06,1978.13,1362.99z M2068.69,1474.25
				c-29.52-36.67-59.35-73.35-89.47-109.93c-8.64,28.08-16.84,57.02-24.56,86.97c32.02,38.83,63.67,77.67,94.93,116.36
				C2055.53,1535.58,2061.89,1504.43,2068.69,1474.25z M2164.84,1594.95c-31.27-39.63-62.95-79.44-95.01-119.28
				c-6.8,30.19-13.13,61.36-19.06,93.44c33.32,41.26,66.19,82.34,98.56,123.04c1.65-7.82,3.27-15.77,4.85-23.89
				C2157.47,1643.21,2161.08,1618.9,2164.84,1594.95z M2266.42,1724.76c-32.95-42.41-66.42-85.25-100.38-128.29
				c-3.69,23.54-7.23,47.43-10.45,72.03l0,0.04c-1.65,8.53-3.36,16.87-5.09,25.07c33.45,42.07,66.37,83.73,98.71,124.78
				c6.26-27.94,11.9-58.17,16.92-90.78h0C2266.21,1726.64,2266.32,1725.7,2266.42,1724.76z M2368.29,1856.59
				c-32.94-42.81-66.5-86.29-100.62-130.21c-0.05,0.46-0.11,0.93-0.15,1.41v0.03c-5.09,33.08-10.83,63.71-17.19,92
				c23.02,29.22,45.75,58.12,68.16,86.63c10.52,13.38,20.98,26.68,31.36,39.88C2356.76,1919.16,2362.92,1889.28,2368.29,1856.59z
				 M2445.11,1956.57c-24.83-32.34-50.05-65.19-75.64-98.45c-5.4,32.64-11.58,62.47-18.52,89.59
				c33.92,43.11,67.08,85.2,99.43,125.98c7.73-24.78,14.58-52.57,20.52-83.53L2445.11,1956.57z M1505.05,834.92
				c-14.79-14.81-29.62-29.45-44.47-43.95c-24.64,12.05-48.73,24.48-72.32,37.25c16.82,16.14,33.59,32.51,50.32,49.06
				C1460.21,862.71,1482.38,848.6,1505.05,834.92z M1555.76,886.41c-16.51-16.99-33.07-33.82-49.67-50.46
				c-22.67,13.68-44.84,27.78-66.47,42.35c18.64,18.45,37.24,37.14,55.77,56.05C1515,917.83,1535.12,901.85,1555.76,886.41z
				 M1611.91,945.01c-18.32-19.39-36.71-38.59-55.15-57.57c-20.64,15.44-40.76,31.41-60.37,47.92
				c20.51,20.93,40.94,42.13,61.3,63.55C1575.25,980.34,1593.32,962.36,1611.91,945.01z M1673.68,1011.34
				c-20.18-21.98-40.45-43.75-60.79-65.29c-18.59,17.34-36.65,35.32-54.22,53.9c22.4,23.58,44.7,47.44,66.9,71.54
				C1641.1,1050.74,1657.14,1030.69,1673.68,1011.34z M1741.25,1085.96c-22.09-24.75-44.3-49.27-66.6-73.56
				c-16.54,19.36-32.57,39.4-48.1,60.15c24.33,26.43,48.53,53.15,72.6,80.08C1712.68,1129.62,1726.73,1107.43,1741.25,1085.96z
				 M1742.74,1087.62l-0.5-0.56c-14.51,21.48-28.56,43.68-42.1,66.69c25.6,28.66,51.06,57.55,76.33,86.64l1.83,2.12
				c11.54-25.32,23.55-49.81,36.06-73.46C1790.63,1141.69,1766.75,1114.53,1742.74,1087.62z M425.45,1449.81
				c-18.09,18.8-35.49,37.09-52.31,54.84c32.2,16.03,64.47,32.03,96.78,47.55c18.6-14.1,37.67-29.01,57.28-44.71l-12.98-7.4
				C484.64,1483.24,455.04,1466.38,425.45,1449.81z M479.93,1393.93c-18.45,18.65-36.26,36.95-53.47,54.83
				c29.49,16.5,58.98,33.31,88.46,50.11l13.47,7.67c18.55-14.86,37.57-30.41,57.1-46.62
				C550.37,1437.51,515.16,1415.35,479.93,1393.93z M535.76,1338.53c-18.87,18.38-37.14,36.53-54.8,54.36
				c35.27,21.45,70.52,43.64,105.67,66.08c18.55-15.41,37.56-31.41,57.05-47.96C607.81,1386.18,571.81,1361.86,535.76,1338.53z
				 M593.06,1283.92c-19.34,18.03-38.11,35.92-56.27,53.59c36.08,23.36,72.11,47.7,108,72.55c18.59-15.8,37.62-32.1,57.12-48.88
				C665.76,1334.58,629.45,1308.68,593.06,1283.92z M651.93,1230.35c-19.86,17.63-39.12,35.17-57.81,52.58
				c36.4,24.78,72.73,50.69,108.9,77.3c18.66-16.06,37.75-32.57,57.29-49.48C724.32,1283,688.18,1256.07,651.93,1230.35z
				 M712.42,1177.98c-20.42,17.18-40.14,34.32-59.4,51.4c36.25,25.73,72.4,52.66,108.38,80.41c10.55-9.13,21.22-18.38,32.03-27.75
				l25.5-22.09C783.57,1231.65,748.05,1204.21,712.42,1177.98z M774.74,1127.1c-20.96,16.64-41.37,33.31-61.19,49.96
				c35.62,26.22,71.13,53.66,106.47,81.95c18.88-16.35,38.15-33.03,57.85-50.02C843.64,1180.72,809.24,1153.34,774.74,1127.1z
				 M838.84,1077.76c-21.54,16.08-42.55,32.23-62.96,48.42c34.48,26.24,68.87,53.61,103.08,81.85c19-16.39,38.39-33.07,58.19-50.03
				C904.52,1130.36,871.73,1103.54,838.84,1077.76z M904.76,1030.02c-22.18,15.51-43.67,31.16-64.73,46.86
				c32.86,25.76,65.61,52.57,98.22,80.19c19.15-16.4,38.67-33.05,58.6-49.95C966.27,1080.64,935.57,1054.85,904.76,1030.02z
				 M972.62,984.25c-22.73,14.85-45.04,29.8-66.66,44.91c30.77,24.81,61.44,50.57,91.98,77.03c12.24-10.38,24.63-20.85,37.17-31.4v0
				c7.03-6.32,14.15-12.6,21.32-18.85C1028.59,1031.39,1000.65,1007.46,972.62,984.25z M1042.29,940.2
				c-23.41,14.23-46.11,28.68-68.42,43.24c27.97,23.16,55.86,47.05,83.64,71.57c19.32-16.81,39.12-33.33,59.48-49.53
				C1092.17,983.21,1067.27,961.41,1042.29,940.2z M1114.07,898.32c-24,13.52-47.6,27.2-70.52,41.1
				c24.93,21.17,49.78,42.93,74.55,65.16c20.21-16.05,40.94-31.8,62.18-47.22C1158.28,937.28,1136.21,917.58,1114.07,898.32z
				 M1187.6,858.41c-24.64,12.83-48.64,25.91-72.2,39.17c22.08,19.22,44.11,38.88,66.07,58.92c21.06-15.26,42.61-30.21,64.71-44.82
				C1226.7,893.62,1207.18,875.85,1187.6,858.41z M1263.17,820.72c-25.27,12.09-50.04,24.41-74.23,36.98
				c19.53,17.4,39.02,35.14,58.46,53.17c21.93-14.47,44.39-28.6,67.37-42.38C1297.61,852.31,1280.41,836.43,1263.17,820.72z
				 M1340.75,785.24c-25.92,11.36-51.33,22.96-76.18,34.83c17.19,15.67,34.36,31.52,51.47,47.67
				c22.76-13.63,46.03-26.91,69.85-39.84C1370.87,813.5,1355.82,799.28,1340.75,785.24z M1420.08,751.89
				c-26.57,10.59-52.41,21.57-77.92,32.73c15.04,14.01,30.05,28.2,45.03,42.57c23.59-12.78,47.68-25.22,72.31-37.28
				C1446.38,777.11,1433.25,764.43,1420.08,751.89z M2598.58,544.96c-481.5-0.65-866.29,82.66-1177.06,206.35
				c13.14,12.51,26.25,25.18,39.34,37.96C1756.98,644.67,2129.91,553.49,2598.58,544.96z M2680.17,545.86
				c-2.47-0.05-4.95-0.11-7.41-0.16c-503.24-0.17-899.5,92.69-1210.82,244.61c14.82,14.47,29.61,29.07,44.37,43.85
				c271.8-163.66,619.07-262.55,1055.05-284.34C2600.24,547.88,2639.86,546.57,2680.17,545.86z M2737.35,547.22
				c-5.14-0.18-10.26-0.33-15.36-0.46c-54.82,0.37-108.34,1.87-160.57,4.48c-435.57,21.77-782.52,120.53-1054.08,283.96
				c16.57,16.6,33.09,33.4,49.57,50.37c267.31-199.55,621.4-309.84,1072.44-334.22C2664.74,549.43,2700.76,548.07,2737.35,547.22z
				 M2780.53,549.08c-7.03-0.31-14.03-0.59-21.08-0.91c-44.2,0.77-87.56,2.29-130.03,4.58
				c-450.66,24.36-804.45,134.52-1071.52,333.83c18.4,18.95,36.75,38.1,55.03,57.45c259.97-241.95,619.6-364.08,1084.42-391.18
				C2724.71,551.26,2752.44,550.01,2780.53,549.08z M2827.51,551.11c-9.35-0.5-18.5-0.83-27.69-1.2
				c-34.67,0.97-68.82,2.4-102.38,4.36c-464.45,27.07-823.79,149.09-1083.52,390.8c20.31,21.5,40.53,43.23,60.69,65.17
				c249.66-291.49,613.53-425.94,1090.75-455.86C2785.85,553.1,2806.58,552.01,2827.51,551.11z M2869.37,553.8
				c-9.35-0.59-18.74-1.21-28.1-1.82c-25.58,1-50.88,2.25-75.83,3.81C2288.57,585.7,1925,720.04,1675.58,1011.31
				c22.26,24.25,44.44,48.73,66.49,73.44C1984.14,727.48,2363.22,581.81,2869.37,553.8z M2913.56,556.65
				c-10.75-0.77-21.34-1.41-31.96-2.06C2369.7,580.94,1986.79,726,1743.06,1085.85l0.74,0.83c23.89,26.78,47.64,53.8,71.26,81
				C2036.59,749.93,2409.62,590.83,2913.56,556.65z M2956.43,560.01c-10.61-0.86-21.36-1.84-31.92-2.66
				c-509.13,32.64-885.6,190.99-1108.43,611.5c26.13,30.12,52.09,60.46,77.86,90.96C2092.17,775.23,2457.11,601.01,2956.43,560.01z
				 M3000.78,563.81c-12.02-1.08-23.95-2.08-35.86-3.07c-503.31,39.75-870.91,213.19-1069.95,700.3
				c28.11,33.28,56.01,66.75,83.65,100.31C2151.28,802.81,2507.13,611.94,3000.78,563.81z M3046.12,568.02
				c-12.5-1.24-24.92-2.4-37.29-3.52c-497.44,46.89-855.86,236.82-1029.12,798.18c30.09,36.54,59.89,73.17,89.37,109.8
				C2213.84,833.06,2559.4,623.71,3046.12,568.02z M3091.39,572.83c-12.91-1.4-25.84-2.79-38.67-4.11
				c-489.8,54.62-837.43,263.03-982.5,905.18c32.02,39.79,63.68,79.56,94.92,119.15C2279.7,866.57,2613.4,636.75,3091.39,572.83z
				 M3138.8,577.94c-13.9-1.63-27.52-3-41.23-4.45c-480.86,62.85-816.54,291.58-931.23,1021.07c33.93,43,67.37,85.79,100.3,128.17
				C2349.04,902.38,2670.17,650.43,3138.8,577.94z M3186.05,583.91c-13.95-1.76-28-3.62-41.86-5.3
				c-471.08,71.49-793.95,322.31-876.3,1145.72c34.15,43.97,67.74,87.49,100.72,130.34c3.48-21.37,6.63-43.92,9.44-67.73
				C2438.8,927.21,2741.31,663.59,3186.05,583.91z M3235.77,590.21c-15.08-2.04-29.88-3.81-44.77-5.67
				c-446.68,78.67-750.66,340.92-811.54,1202.52l0,0.03c-2.87,24.32-6.1,47.33-9.67,69.11c25.87,33.62,51.36,66.82,76.45,99.5
				l25.02,32.59c7.89-41.55,14.16-88.74,18.72-142.04C2530.59,952.11,2814.62,676.89,3235.77,590.21z M3285.53,597.35
				c-15.05-2.17-30.28-4.51-45.22-6.57c-422.86,85.7-708.23,359.58-748.93,1255.57v0.03c-4.6,53.86-10.96,101.51-18.98,143.42
				c34.62,45.08,68.44,89.07,101.4,131.66c13.73-57.17,23.21-128.56,28.09-215.87C2623.01,979.72,2888.1,691.61,3285.53,597.35z
				 M3337.47,604.96c-16.12-2.48-32.01-4.73-47.95-7.02c-398.84,93.34-665.06,380.19-686.2,1307.71v0.03
				c-4.92,87.92-14.51,159.76-28.41,217.21c34.35,44.39,67.77,87.27,100.16,128.3c21.83-66.1,35.08-159.96,38.77-286.26
				C2716.12,1008.52,2962.74,706.89,3337.47,604.96z M3390.14,613.4c-16.35-2.66-32.76-5.39-48.95-7.9
				c-375.99,101.03-623.66,401.39-625.94,1359.44v0.02c-3.7,126.92-17.09,221.18-39.16,287.52c33.63,42.58,66.18,83.17,97.54,121.38
				c33.2-65.99,51.33-178.91,52.13-349.61C2809.91,1039.65,3037.91,723.52,3390.14,613.4z M3444.87,622.48
				c-17.26-2.97-34.32-5.75-51.38-8.52c-353.29,109.27-582.19,424.19-566.31,1410.28v0.02c-0.8,171.26-19.1,284.56-52.6,350.77
				c32.4,39.44,63.54,76.36,93.33,110.31c48.91-54.29,73.72-180.87,69.79-401.75C2904.37,1072.03,3114.24,741,3444.87,622.48z
				 M3500.8,632.44c-17.7-3.21-35.4-6.43-52.91-9.46c-331.52,117.69-542.15,447.63-508.78,1460.55v0.01
				c3.94,221.27-21.04,348.21-70.28,402.83c30.54,34.77,59.67,66.46,87.27,94.56c70.13-28.48,104.21-160.83,93.53-438.04
				C2999.53,1106.42,3191.36,759.8,3500.8,632.44z M3558.28,643.08c-18.37-3.51-36.56-6.83-54.71-10.13
				c-310.19,126.57-502.69,472.13-452.53,1509.88v0.01c10.68,277.16-23.52,409.97-93.88,439.18c27.98,28.43,54.39,53.17,79.14,73.8
				c6.48,0.9,12.76,1.23,18.78,0.89c85.15-4.92,124.78-137.11,106.47-454.5C3095.35,1142.38,3269.4,779.63,3558.28,643.08z
				 M3617.44,654.72c-18.92-3.79-37.83-7.57-56.55-11.16c-289.54,135.77-464.2,497.47-397.92,1558.57v0
				c18.37,318.39-21.73,451.02-107.8,455.99c-5.44,0.31-11.08,0.05-16.88-0.64c56.96,47.12,105.05,72.12,143.01,69.26
				c81.7-6.17,116.58-142.01,92.18-465.21C3191.85,1179.88,3348.52,800.81,3617.44,654.72z M3563.16,642.54
				c18.6,3.57,37.41,7.35,56.22,11.13c7-3.77,14.08-7.38,21.23-10.86c-18.52-3.43-36.95-6.78-55.26-10.02
				C3577.88,635.89,3570.48,639.14,3563.16,642.54z M3506,631.95c18.1,3.29,36.21,6.59,54.53,10.1c7.27-3.4,14.6-6.65,22.01-9.76
				c-17.91-3.16-35.72-6.23-53.44-9.2C3521.34,625.93,3513.63,628.87,3506,631.95z M3450.6,621.99c17.41,3.02,35.04,6.26,52.64,9.46
				c7.56-3.08,15.19-6.03,22.88-8.86c-17.37-2.91-34.65-5.74-51.83-8.48C3466.32,616.61,3458.43,619.24,3450.6,621.99z
				 M3396.59,613.03c16.93,2.76,33.85,5.5,50.98,8.46c7.74-2.75,15.56-5.38,23.43-7.9c-16.69-2.65-33.28-5.21-49.8-7.7
				C3412.93,608.16,3404.73,610.54,3396.59,613.03z M3344.68,604.57c16.05,2.51,32.36,5.26,48.56,7.9
				c8.04-2.48,16.14-4.86,24.32-7.13c-16.06-2.41-32.08-4.77-47.98-7.03C3361.21,600.31,3352.92,602.39,3344.68,604.57z
				 M3293.28,597.05c15.85,2.28,31.63,4.51,47.67,6.98c8.14-2.18,16.34-4.27,24.6-6.28c-15.55-2.2-31.01-4.31-46.4-6.36
				C3310.48,593.19,3301.85,595.08,3293.28,597.05z M3244.54,589.91c14.79,2.06,29.86,4.4,44.76,6.55
				c8.43-1.97,16.93-3.85,25.47-5.66c-14.93-1.98-29.78-3.9-44.56-5.74C3261.6,586.61,3253.04,588.22,3244.54,589.91z
				 M3195.77,583.7c14.76,1.84,29.39,3.58,44.34,5.61c8.37-1.69,16.79-3.31,25.27-4.86c-14.35-1.78-28.63-3.49-42.84-5.14
				C3213.57,580.71,3204.64,582.17,3195.77,583.7z M3149.48,577.86c13.7,1.66,27.56,3.47,41.34,5.22c8.69-1.53,17.42-3,26.22-4.39
				c-13.8-1.59-27.54-3.11-41.21-4.59C3166.99,575.29,3158.22,576.55,3149.48,577.86z M3103.6,572.69
				c13.43,1.45,26.83,2.87,40.44,4.47c8.52-1.29,17.08-2.53,25.7-3.72c-13.05-1.39-26.05-2.73-38.99-4.01
				C3121.65,570.46,3112.59,571.54,3103.6,572.69z M3059.17,567.97c12.69,1.3,25.45,2.66,38.24,4.06
				c8.79-1.15,17.63-2.24,26.52-3.28c-12.55-1.23-25.03-2.4-37.46-3.52C3077.33,566.1,3068.21,566.99,3059.17,567.97z
				 M3016.73,563.74c11.87,1.11,23.86,2.32,35.84,3.53c8.65-0.97,17.36-1.86,26.11-2.73c-11.88-1.06-23.71-2.07-35.49-3.04
				C3034.32,562.21,3025.49,562.94,3016.73,563.74z M2973.94,560.08c11.54,0.96,23.07,1.9,34.73,2.97
				c8.46-0.8,16.95-1.57,25.49-2.28c-11.19-0.9-22.34-1.75-33.45-2.57C2991.76,558.8,2982.82,559.41,2973.94,560.08z
				 M2934.28,556.69c10.11,0.83,20.33,1.77,30.45,2.6c8.58-0.68,17.27-1.26,25.94-1.85c-10.37-0.74-20.71-1.45-31-2.11
				C2951.18,555.76,2942.68,556.18,2934.28,556.69z M2893.72,553.94c10.17,0.63,20.28,1.21,30.61,1.98
				c7.53-0.48,15.08-0.95,22.67-1.37c-9.39-0.58-18.76-1.15-28.08-1.68C2910.48,553.19,2902.07,553.54,2893.72,553.94z
				 M2855.1,551.44c8.79,0.57,17.57,1.13,26.36,1.7c7.22-0.37,14.37-0.81,21.63-1.14c-8.47-0.45-16.91-0.87-25.33-1.27
				C2870.18,550.95,2862.62,551.18,2855.1,551.44z M2820.43,549.37c6.92,0.34,13.96,0.79,20.95,1.18
				c6.06-0.24,12.12-0.46,18.21-0.67c-7.05-0.31-14.06-0.58-21.06-0.85C2832.48,549.13,2826.44,549.24,2820.43,549.37z M2784,547.8
				c5.34,0.23,10.64,0.43,16.01,0.69c4.46-0.12,8.91-0.26,13.39-0.37c-4.39-0.14-8.8-0.31-13.18-0.44
				C2794.81,547.72,2789.38,547.74,2784,547.8z M2758,546.68c0.56,0.02,1.12,0.05,1.68,0.07c0.96-0.02,1.93-0.03,2.89-0.04
				l-0.54-0.01C2760.68,546.69,2759.33,546.68,2758,546.68z M216.38,1665.92c-17.23,16.32-33.73,31.08-49.63,44.06
				c38.33-5.67,78.31-19.36,120.77-40.21C263.44,1670.18,239.74,1668.88,216.38,1665.92z M267.93,1614.93
				c-17.42,17.81-34.13,34.43-50.2,49.71c23.91,2.97,48.16,4.19,72.82,3.63c19.13-9.52,38.76-20.47,58.97-32.8
				C322.08,1629.91,294.89,1622.98,267.93,1614.93z M319.72,1561.06c-17.55,18.48-34.41,36.1-50.64,52.7
				c27.18,8.09,54.6,15.03,82.27,20.59c18.88-11.57,38.26-24.32,58.21-38.19C379.48,1585.24,349.52,1573.43,319.72,1561.06z
				 M351.13,1527.91c-10.35,10.94-20.47,21.63-30.36,32.05c29.94,12.42,60.02,24.26,90.24,35.2c16.25-11.33,32.87-23.39,49.91-36.16
				c2.57-1.92,5.15-3.87,7.73-5.83c-32.22-15.48-64.41-31.44-96.52-47.43C365.03,1513.22,358,1520.64,351.13,1527.91z M0,1765.57
				c31.15,10.8,63.17,6.12,97.71-10.95c20.35-10.06,41.59-24.41,64.03-42.41c-56.54,7.34-109.57-2.92-161.75-33.59v-1.75
				c52.88,31.23,106.63,41.41,164.05,33.48c16.17-13.1,32.96-28.05,50.52-44.66c-73.99-9.64-144.79-35.88-214.57-76.91v-1.65
				c70.2,41.38,141.42,67.77,215.9,77.3c16.17-15.34,32.97-32.05,50.51-49.96c-91.07-27.34-179.54-67.45-266.4-111.74v-1.59
				c87.23,44.5,176.08,84.8,267.56,112.16c16.27-16.63,33.17-34.28,50.76-52.81c-52.46-21.8-104.47-45.28-155.95-68.53
				c-54.74-24.73-108.89-49.19-162.37-71.06v-1.53c53.67,21.95,108.01,46.49,162.95,71.3c51.64,23.32,103.8,46.87,156.42,68.72
				c10.01-10.55,20.25-21.36,30.73-32.44c6.78-7.17,13.71-14.48,20.69-21.86l-14.24-7.09C235.75,1437.79,116.12,1378.19,0,1342.71
				v-1.48c116.36,35.5,236.19,95.2,357.19,155.49l14.63,7.29c16.84-17.77,34.25-36.08,52.35-54.9
				C280.76,1368.87,137.74,1296.04,0,1267.58v-1.45c138.12,28.48,281.46,101.5,425.19,181.91c17.22-17.89,35.04-36.21,53.5-54.87
				C317.09,1295.01,155.05,1212.73,0,1194.93v-1.43c155.46,17.8,317.82,100.28,479.71,198.64c17.66-17.84,35.94-36.01,54.82-54.39
				C354.28,1221.2,172.7,1129.58,0,1124.3v-1.42c173.12,5.28,355.03,97.1,535.57,213.85c18.16-17.68,36.94-35.57,56.28-53.62
				C392.45,1147.56,190.74,1046.53,0,1055.36v-1.43c191.18-8.83,393.23,92.41,592.92,228.18c18.7-17.42,37.96-34.96,57.82-52.6
				C431.67,1074.21,209.2,963.45,0,987.8v-1.43c209.66-24.34,432.48,86.63,651.83,242.18c19.27-17.09,38.99-34.24,59.41-51.43
				C471.98,1001.2,228.12,880.29,0,921.43v-1.45c228.61-41.12,472.83,80.02,712.37,256.2c19.82-16.66,40.24-33.33,61.2-49.98
				C513.55,928.64,247.57,796.93,0,856.05v-1.46c248.07-59.1,514.41,72.87,774.71,270.71c20.42-16.2,41.42-32.35,62.96-48.44
				C556.35,856.56,267.53,713.24,0,791.48v-1.49c268.05-78.19,557.24,65.41,838.86,285.99c21.06-15.71,42.55-31.36,64.74-46.88
				C600.41,784.93,288.02,629.21,0,727.63v-1.51c288.56-98.36,601.33,57.65,904.8,302.11c21.63-15.11,43.93-30.08,66.67-44.93
				C645.83,713.99,309.1,544.79,0,664.43v-1.54c309.65-119.56,646.78,49.95,972.71,319.59c22.31-14.56,45.02-29.02,68.44-43.26
				C692.54,643.52,330.71,459.84,0,601.72v-1.55c331.27-141.78,693.51,42.24,1042.41,338.27c22.91-13.91,46.51-27.58,70.5-41.12
				C740.73,573.8,352.94,374.43,0,539.54v-1.59c353.54-165.01,741.75,34.73,1114.24,358.63c23.56-13.26,47.57-26.36,72.21-39.19
				C790.19,504.75,375.71,288.45,0,477.75v-1.6c376.31-189.19,791.23,27.51,1187.79,380.53c24.19-12.58,48.96-24.91,74.23-37.01
				C841.13,436.44,399.09,201.82,0,416.28v-1.63c399.72-214.34,842.21,20.72,1263.41,404.37c24.85-11.88,50.27-23.49,76.2-34.85
				C893.54,368.86,423.09,114.64,0,355.26v-1.65c423.72-240.47,894.62,14.2,1341.01,429.94c25.5-11.16,51.35-22.15,77.92-32.75
				C947.23,302.07,447.61,26.75,0,294.42v-1.66c448.26-267.5,948.33,8.26,1420.36,457.45
				c326.95-130.22,735.81-215.79,1253.03-205.92c0.45,0,0.88-0.01,1.33-0.01c28.73,0.03,57.81,0.37,87.23,1
				c24.55,0.08,49.35,0.38,74.4,0.9c24.87,0.05,49.98,0.31,75.39,0.82c25.06,0.03,50.43,0.32,76.04,0.82
				c25.41,0.01,51.08,0.24,77.05,0.73c24.52-0.01,49.33,0.23,74.36,0.65c25.78-0.05,51.9,0.19,78.25,0.61
				c26.13-0.07,52.54,0.08,79.26,0.47c25.41-0.1,51.1,0.02,77.07,0.34c27.6-0.16,55.53-0.06,83.78,0.23
				c26.84-0.18,54-0.15,81.46,0.05c28.47-0.26,57.25-0.32,86.4-0.22c29.54-0.35,59.43-0.51,89.67-0.55
				c31.78-0.49,63.97-0.83,96.52-1.11c22.1-0.47,44.38-0.9,66.83-1.33c14.21-0.27,28.49-0.55,42.83-0.84
				c43.21-1.33,87.05-2.73,131.44-4.56c56.31-2.82,113.55-6.33,171.47-11.43c61.46-5.92,123.71-13.76,186.4-24.83
				c51.66-9.73,103.58-21.92,155.55-37.39c42.48-13.49,84.93-29.47,127.2-48.52c104.91-50.51,208.13-122.58,306.68-227.28v2.09
				c-83.73,88.74-170.8,153.99-259.4,202.52c88.01-44.81,174.96-104.05,259.4-183.12v1.95c-99.29,92.79-202.02,158.23-305.88,205.06
				c-10.58,5.09-21.17,9.96-31.79,14.63c113.91-43.67,227.28-105.95,337.66-196.18v1.84c-119.79,97.76-243.09,162.65-366.75,206.62
				c-14.6,5.9-29.22,11.44-43.85,16.63c137.45-39.85,275.48-100.79,410.6-196.19v1.75c-142.96,100.79-289.15,163.05-434.47,202.63
				c-18.42,6.07-36.85,11.61-55.29,16.71c162.47-34.37,327.29-91.37,489.76-189.22v1.64c-170.41,102.5-343.38,160.14-513.5,193.89
				c-21.91,5.6-43.81,10.61-65.66,15.09c190.11-27.48,385.24-78.14,579.17-176.24v1.59c-202.59,102.37-406.44,153.04-604.52,179.62
				c-25.32,4.76-50.59,8.89-75.74,12.52c220.58-19.5,450.01-61.25,680.26-157.13v1.53c-239.73,99.74-478.52,140.87-707.37,159.32
				c-26.04,3.43-51.95,6.4-77.68,9.07c251.21-11.2,516.17-41.74,785.06-131.4v1.5c-277.6,92.5-550.99,122.03-809.37,132.34
				c-22.71,2.22-45.27,4.25-67.65,6.22c277.15-3.61,573.12-21.89,877.02-99.86v1.46c-310.8,79.69-613.26,97.01-895.79,100.04
				l-9.05,0.79c-15.54,1.35-30.98,2.69-46.32,4.07c297.4,3.15,618.07-3.02,951.17-64.7v1.45c-338.3,62.62-663.76,68-965.05,64.52
				c-15.59,1.43-31.06,2.9-46.41,4.47c313.43,9.42,653.93,15.02,1011.46-27.49v1.42c-361.59,42.98-705.75,36.77-1022.11,27.16
				c-13.57,1.43-27.02,2.95-40.38,4.57l4.49,0.21c325.53,15.44,681.07,32.31,1058,10.73v1.42
				c-376.97,21.58-732.52,4.71-1058.06-10.74l-12.86-0.61c-12.15,1.52-24.18,3.17-36.13,4.9c46.13,2.94,92.83,6,140.17,9.11
				c299.82,19.69,623.65,40.96,966.88,41.03v1.42c-343.29-0.07-667.14-21.33-966.97-41.03c-49.63-3.26-98.57-6.47-146.85-9.54
				c-11.13,1.67-22.18,3.45-33.13,5.35c107.46,8.54,218.3,18.23,332.39,28.22c255.86,22.38,527.99,46.19,814.57,61.6v1.42
				c-286.68-15.41-558.83-39.21-814.69-61.6c-115.99-10.15-228.64-20.01-337.77-28.65c-10.37,1.85-20.67,3.79-30.87,5.9
				c197.14,18.71,405.78,42.64,625.38,67.84c178.86,20.52,364.97,41.88,557.94,61.92v1.43c-193.1-20.05-379.23-41.41-558.1-61.94
				c-221.31-25.39-431.47-49.5-629.95-68.28c-9.64,2.03-19.17,4.22-28.64,6.52c337.93,37.22,709.93,93.35,1114.6,154.41
				c33.81,5.1,67.85,10.24,102.1,15.4v1.44c-34.34-5.17-68.44-10.32-102.31-15.43c-406.19-61.29-779.47-117.61-1118.4-154.83
				c-9.1,2.25-18.14,4.59-27.08,7.11c374.07,46.91,790.08,120.86,1247.79,209.92v1.44c-459.2-89.35-876.4-163.49-1251.4-210.38
				c-8.58,2.46-17.06,5.08-25.48,7.82c381.5,53.62,806.66,139.03,1276.88,249.91v1.46c-471.47-111.17-897.63-196.75-1279.89-250.36
				c-8.19,2.7-16.3,5.53-24.34,8.51c388.51,60.49,822.28,157.39,1304.24,289.71v1.48c-483.1-132.65-917.77-229.69-1306.98-290.17
				c-7.8,2.93-15.55,5.98-23.2,9.2c395.2,67.52,837.15,175.94,1330.18,329.3v1.48c-494.07-153.7-936.84-262.28-1332.66-329.78
				c-7.45,3.18-14.83,6.49-22.12,9.98c401.59,74.68,851.29,194.62,1354.78,368.55v1.5c-504.38-174.26-954.78-294.35-1356.89-369.01
				c-7.2,3.48-14.34,7.1-21.39,10.87c407.81,81.97,864.82,213.26,1378.28,407.29v1.52c-514.29-194.38-971.94-325.8-1380.22-407.75
				c-269.44,145.36-426.6,523.49-344.88,1606.23c24.46,324.21-10.88,460.49-93.49,466.73c-38.63,2.92-87.58-22.74-145.56-70.97
				c-36.74-5.24-80.57-30-130.7-70.6c-37.61-6.47-81.77-31.15-131.74-70.56c-38.46-7.61-82.95-32.14-132.79-70.39
				c-39.37-8.64-84.29-33.09-134.15-70.27c-40.28-9.59-85.67-33.88-135.59-70.02c-41.2-10.42-87.09-34.53-137.1-69.6
				c-42.19-11.12-88.67-35.01-138.89-69.05c-43.26-11.69-90.41-35.3-140.95-68.29c-44.37-12.1-92.26-35.32-143.2-67.21
				c-45.54-12.31-94.24-34.99-145.64-65.65c-46.82-12.28-96.42-34.23-148.38-63.52c-5.96-1.47-11.97-3.09-18.01-4.84
				c-42.67-12.37-87.15-31.44-133.16-55.65c-20.77-4.67-41.89-10.79-63.33-18.26c-29.6-10.29-59.8-23.07-90.55-37.91
				c-46.34-8.87-93.95-24.22-142.6-44.37c-4.57-1.89-9.15-3.83-13.74-5.81c-51.75-7.51-104.52-22.21-158.04-41.94
				c-52.41-4.26-105.26-15.16-158.35-30.74c-52.38,0.26-104.52-5.75-156.35-16.28c-51.23,6.23-101.44,6.36-150.78,1.62
				c-8.28,2.32-16.5,4.47-24.68,6.41c-39.86,9.48-78.49,14.54-116.17,15.43c-44.57,22.17-86.42,36.55-126.48,42.15
				c-23.2,18.76-45.12,33.67-66.12,44.05c-34.78,17.19-67.02,21.97-98.34,11.27V1765.57z"/>
		</defs>
		<use xlink:href="#SVGID_1_"  style="overflow:visible;fill-rule:evenodd;clip-rule:evenodd;fill:#FFFFFF;"/>
		<clipPath id="SVGID_2_">
			<use xlink:href="#SVGID_1_"  style="overflow:visible;"/>
		</clipPath>
		<rect y="25.27" class="st1" width="5000" height="2705.81"/>
	</g>
</g>
</svg>
